<mxfile host="app.diagrams.net" modified="2021-12-29T01:24:05.305Z" agent="5.0 (Windows NT 10.0; Win64; x64) AppleWebKit/537.36 (KHTML, like Gecko) Chrome/96.0.4664.110 Safari/537.36" etag="4AHAPOAwYXzJSXAU5_mo" version="16.1.0" type="github">
  <diagram id="C5RBs43oDa-KdzZeNtuy" name="Page-1">
    <mxGraphModel dx="2249" dy="4376" grid="1" gridSize="10" guides="1" tooltips="1" connect="1" arrows="1" fold="1" page="1" pageScale="1" pageWidth="827" pageHeight="1169" background="#ffffff" math="0" shadow="0">
      <root>
        <mxCell id="WIyWlLk6GJQsqaUBKTNV-0" />
        <mxCell id="WIyWlLk6GJQsqaUBKTNV-1" parent="WIyWlLk6GJQsqaUBKTNV-0" />
        <mxCell id="Q8CTjy8gL7TWKLckY6P0-8" value="" style="rounded=0;whiteSpace=wrap;html=1;labelBackgroundColor=#FFFF00;strokeWidth=10;shadow=1;perimeterSpacing=10;opacity=50;fillColor=#d5e8d4;strokeColor=#82b366;" parent="WIyWlLk6GJQsqaUBKTNV-1" vertex="1">
          <mxGeometry x="-210" y="-247.5" width="1500" height="1471" as="geometry" />
        </mxCell>
        <mxCell id="WIyWlLk6GJQsqaUBKTNV-3" value="添加活动" style="rounded=1;whiteSpace=wrap;html=1;fontSize=15;glass=0;strokeWidth=1;shadow=0;fontStyle=1;fillColor=#fff2cc;strokeColor=#d6b656;fontColor=#000000;" parent="WIyWlLk6GJQsqaUBKTNV-1" vertex="1">
          <mxGeometry x="320" y="-190" width="120" height="40" as="geometry" />
        </mxCell>
        <mxCell id="WX159TqEyCOsGKeHhvjS-19" value="" style="edgeStyle=orthogonalEdgeStyle;rounded=0;orthogonalLoop=1;jettySize=auto;html=1;fontSize=12;fillColor=#fff2cc;strokeColor=#d6b656;entryX=0.5;entryY=0;entryDx=0;entryDy=0;fontColor=#000000;" parent="WIyWlLk6GJQsqaUBKTNV-1" source="WIyWlLk6GJQsqaUBKTNV-7" target="WX159TqEyCOsGKeHhvjS-20" edge="1">
          <mxGeometry relative="1" as="geometry">
            <mxPoint x="80" y="220" as="targetPoint" />
          </mxGeometry>
        </mxCell>
        <mxCell id="WIyWlLk6GJQsqaUBKTNV-7" value="发布活动" style="rounded=1;whiteSpace=wrap;html=1;fontSize=15;glass=0;strokeWidth=1;shadow=0;fillColor=#fff2cc;strokeColor=#d6b656;fontStyle=1;fontColor=#000000;" parent="WIyWlLk6GJQsqaUBKTNV-1" vertex="1">
          <mxGeometry x="320" y="-90" width="120" height="40" as="geometry" />
        </mxCell>
        <mxCell id="WX159TqEyCOsGKeHhvjS-12" value="问题" style="swimlane;fontSize=15;gradientColor=none;opacity=0;fontStyle=1;labelBorderColor=none;labelBackgroundColor=#FF0000;fontColor=#000000;" parent="WIyWlLk6GJQsqaUBKTNV-1" vertex="1" collapsed="1">
          <mxGeometry x="440" y="-190" width="70" height="23" as="geometry">
            <mxRectangle x="270" y="70" width="220" height="170" as="alternateBounds" />
          </mxGeometry>
        </mxCell>
        <mxCell id="WX159TqEyCOsGKeHhvjS-13" value="1. 编辑项重新设计&lt;b&gt;【见详细流程图】&lt;/b&gt;&lt;br&gt;（1）活动基本信息&lt;br&gt;（2）报名填报信息&lt;br&gt;（3）活动限制条件&lt;br&gt;&lt;br&gt;2. 编辑排版重新设计&lt;b&gt;【见蓝湖】&lt;/b&gt;&lt;br&gt;（1）增加封面图、增加排版&amp;nbsp;" style="rounded=0;whiteSpace=wrap;html=1;fontSize=12;gradientColor=none;opacity=0;align=left;verticalAlign=top;" parent="WX159TqEyCOsGKeHhvjS-12" vertex="1">
          <mxGeometry x="20" y="30" width="240" height="110" as="geometry" />
        </mxCell>
        <mxCell id="WX159TqEyCOsGKeHhvjS-34" value="" style="edgeStyle=orthogonalEdgeStyle;rounded=0;orthogonalLoop=1;jettySize=auto;html=1;fontSize=12;endArrow=classic;endFill=1;fillColor=#dae8fc;strokeColor=#6c8ebf;fontColor=#000000;entryX=0.211;entryY=0.024;entryDx=0;entryDy=0;entryPerimeter=0;" parent="WIyWlLk6GJQsqaUBKTNV-1" source="WX159TqEyCOsGKeHhvjS-17" target="WX159TqEyCOsGKeHhvjS-92" edge="1">
          <mxGeometry relative="1" as="geometry">
            <mxPoint x="730" y="310" as="targetPoint" />
          </mxGeometry>
        </mxCell>
        <mxCell id="WX159TqEyCOsGKeHhvjS-17" value="为自己报名" style="rounded=1;whiteSpace=wrap;html=1;fontSize=15;glass=0;strokeWidth=1;shadow=0;fontStyle=1;fillColor=#dae8fc;strokeColor=#6c8ebf;fontColor=#000000;" parent="WIyWlLk6GJQsqaUBKTNV-1" vertex="1">
          <mxGeometry x="670" y="150" width="120" height="40" as="geometry" />
        </mxCell>
        <mxCell id="WX159TqEyCOsGKeHhvjS-20" value="简易报名" style="rounded=1;whiteSpace=wrap;html=1;fontSize=15;glass=0;strokeWidth=1;shadow=0;fillColor=#fff2cc;strokeColor=#d6b656;fontStyle=1;" parent="WIyWlLk6GJQsqaUBKTNV-1" vertex="1">
          <mxGeometry x="160" y="50" width="120" height="40" as="geometry" />
        </mxCell>
        <mxCell id="WX159TqEyCOsGKeHhvjS-21" value="" style="endArrow=classic;html=1;rounded=0;fontSize=12;entryX=0.5;entryY=0;entryDx=0;entryDy=0;fillColor=#dae8fc;strokeColor=#6c8ebf;fontColor=#000000;exitX=0.5;exitY=1;exitDx=0;exitDy=0;" parent="WIyWlLk6GJQsqaUBKTNV-1" source="CLERFuuJvT8i6gnzWTEx-2" target="WX159TqEyCOsGKeHhvjS-17" edge="1">
          <mxGeometry width="50" height="50" relative="1" as="geometry">
            <mxPoint x="730" y="110" as="sourcePoint" />
            <mxPoint x="730" y="200" as="targetPoint" />
          </mxGeometry>
        </mxCell>
        <mxCell id="WX159TqEyCOsGKeHhvjS-27" value="" style="endArrow=classic;html=1;rounded=0;fontSize=12;fillColor=#fff2cc;strokeColor=#d6b656;entryX=0.5;entryY=0;entryDx=0;entryDy=0;fontColor=#000000;exitX=0.5;exitY=1;exitDx=0;exitDy=0;" parent="WIyWlLk6GJQsqaUBKTNV-1" source="WIyWlLk6GJQsqaUBKTNV-3" target="WIyWlLk6GJQsqaUBKTNV-7" edge="1">
          <mxGeometry width="50" height="50" relative="1" as="geometry">
            <mxPoint x="219.5" y="120" as="sourcePoint" />
            <mxPoint x="219.5" y="190" as="targetPoint" />
          </mxGeometry>
        </mxCell>
        <mxCell id="WX159TqEyCOsGKeHhvjS-28" value="网页报名/二维码" style="whiteSpace=wrap;html=1;fontSize=15;fillColor=#fff2cc;strokeColor=#d6b656;rounded=1;glass=0;strokeWidth=1;shadow=0;fontStyle=1;fontColor=#000000;" parent="WIyWlLk6GJQsqaUBKTNV-1" vertex="1">
          <mxGeometry x="320" y="50" width="120" height="40" as="geometry" />
        </mxCell>
        <mxCell id="WX159TqEyCOsGKeHhvjS-81" value="" style="edgeStyle=orthogonalEdgeStyle;rounded=0;orthogonalLoop=1;jettySize=auto;html=1;fontSize=12;endArrow=classic;endFill=1;fillColor=#dae8fc;strokeColor=#6c8ebf;exitX=0.5;exitY=1;exitDx=0;exitDy=0;fontColor=#000000;" parent="WIyWlLk6GJQsqaUBKTNV-1" source="WX159TqEyCOsGKeHhvjS-84" target="WX159TqEyCOsGKeHhvjS-80" edge="1">
          <mxGeometry relative="1" as="geometry" />
        </mxCell>
        <mxCell id="WX159TqEyCOsGKeHhvjS-85" value="" style="edgeStyle=orthogonalEdgeStyle;rounded=0;orthogonalLoop=1;jettySize=auto;html=1;fontSize=12;endArrow=classic;endFill=1;fillColor=#dae8fc;strokeColor=#6c8ebf;entryX=0.5;entryY=0;entryDx=0;entryDy=0;fontColor=#000000;" parent="WIyWlLk6GJQsqaUBKTNV-1" source="WX159TqEyCOsGKeHhvjS-33" target="WX159TqEyCOsGKeHhvjS-84" edge="1">
          <mxGeometry relative="1" as="geometry">
            <Array as="points" />
          </mxGeometry>
        </mxCell>
        <mxCell id="WX159TqEyCOsGKeHhvjS-93" value="" style="edgeStyle=orthogonalEdgeStyle;rounded=0;orthogonalLoop=1;jettySize=auto;html=1;fontSize=12;endArrow=classic;endFill=1;exitX=0.5;exitY=1;exitDx=0;exitDy=0;entryX=0.5;entryY=0;entryDx=0;entryDy=0;fillColor=#dae8fc;strokeColor=#6c8ebf;fontColor=#000000;" parent="WIyWlLk6GJQsqaUBKTNV-1" source="WX159TqEyCOsGKeHhvjS-101" target="WX159TqEyCOsGKeHhvjS-33" edge="1">
          <mxGeometry relative="1" as="geometry">
            <mxPoint x="770" y="630" as="targetPoint" />
          </mxGeometry>
        </mxCell>
        <mxCell id="WX159TqEyCOsGKeHhvjS-33" value="审核结果" style="rounded=1;whiteSpace=wrap;html=1;fontSize=15;fillColor=#dae8fc;strokeColor=#6c8ebf;glass=0;strokeWidth=1;shadow=0;fontStyle=1;fontColor=#000000;" parent="WIyWlLk6GJQsqaUBKTNV-1" vertex="1">
          <mxGeometry x="750" y="592" width="120" height="40" as="geometry" />
        </mxCell>
        <mxCell id="WX159TqEyCOsGKeHhvjS-44" value="通知（短讯/个人中心）" style="text;html=1;align=center;verticalAlign=middle;whiteSpace=wrap;rounded=0;labelBackgroundColor=#FFFFFF;labelBorderColor=none;fontSize=15;opacity=0;fontStyle=1;fontColor=#000000;" parent="WIyWlLk6GJQsqaUBKTNV-1" vertex="1">
          <mxGeometry x="510" y="580" width="170" height="30" as="geometry" />
        </mxCell>
        <mxCell id="WX159TqEyCOsGKeHhvjS-50" value="" style="edgeStyle=orthogonalEdgeStyle;rounded=0;orthogonalLoop=1;jettySize=auto;html=1;fontSize=12;endArrow=classic;endFill=1;fillColor=#fff2cc;strokeColor=#d6b656;exitX=0.5;exitY=1;exitDx=0;exitDy=0;fontColor=#000000;" parent="WIyWlLk6GJQsqaUBKTNV-1" source="WX159TqEyCOsGKeHhvjS-67" target="WX159TqEyCOsGKeHhvjS-49" edge="1">
          <mxGeometry relative="1" as="geometry">
            <mxPoint x="370" y="1240" as="sourcePoint" />
            <Array as="points">
              <mxPoint x="380" y="990" />
              <mxPoint x="380" y="990" />
            </Array>
          </mxGeometry>
        </mxCell>
        <mxCell id="WX159TqEyCOsGKeHhvjS-52" value="" style="edgeStyle=orthogonalEdgeStyle;rounded=0;orthogonalLoop=1;jettySize=auto;html=1;fontSize=12;endArrow=classic;endFill=1;fillColor=#fff2cc;strokeColor=#d6b656;fontColor=#000000;" parent="WIyWlLk6GJQsqaUBKTNV-1" source="WX159TqEyCOsGKeHhvjS-49" target="WX159TqEyCOsGKeHhvjS-51" edge="1">
          <mxGeometry relative="1" as="geometry" />
        </mxCell>
        <mxCell id="WX159TqEyCOsGKeHhvjS-49" value="活动结束" style="whiteSpace=wrap;html=1;fontSize=15;fillColor=#fff2cc;strokeColor=#d6b656;rounded=1;glass=0;strokeWidth=1;shadow=0;fontStyle=1;fontColor=#000000;" parent="WIyWlLk6GJQsqaUBKTNV-1" vertex="1">
          <mxGeometry x="320" y="990" width="120" height="40" as="geometry" />
        </mxCell>
        <mxCell id="WX159TqEyCOsGKeHhvjS-51" value="活动回顾" style="whiteSpace=wrap;html=1;fontSize=15;fillColor=#fff2cc;strokeColor=#d6b656;rounded=1;glass=0;strokeWidth=1;shadow=0;fontStyle=1;fontColor=#000000;" parent="WIyWlLk6GJQsqaUBKTNV-1" vertex="1">
          <mxGeometry x="320" y="1110" width="120" height="40" as="geometry" />
        </mxCell>
        <mxCell id="WX159TqEyCOsGKeHhvjS-53" value="" style="endArrow=classic;html=1;rounded=0;fontSize=12;exitX=1;exitY=0.5;exitDx=0;exitDy=0;entryX=0.5;entryY=0;entryDx=0;entryDy=0;fillColor=#fff2cc;strokeColor=#d6b656;fontColor=#000000;" parent="WIyWlLk6GJQsqaUBKTNV-1" source="WIyWlLk6GJQsqaUBKTNV-7" target="CLERFuuJvT8i6gnzWTEx-2" edge="1">
          <mxGeometry width="50" height="50" relative="1" as="geometry">
            <mxPoint x="290" y="260" as="sourcePoint" />
            <mxPoint x="340" y="210" as="targetPoint" />
            <Array as="points">
              <mxPoint x="730" y="-70" />
            </Array>
          </mxGeometry>
        </mxCell>
        <mxCell id="WX159TqEyCOsGKeHhvjS-67" value="活动点名、&lt;br&gt;打印票据" style="whiteSpace=wrap;html=1;fontSize=15;fillColor=#fff2cc;strokeColor=#d6b656;rounded=1;glass=0;strokeWidth=1;shadow=0;fontStyle=1;fontColor=#000000;" parent="WIyWlLk6GJQsqaUBKTNV-1" vertex="1">
          <mxGeometry x="320" y="870" width="120" height="40" as="geometry" />
        </mxCell>
        <mxCell id="WX159TqEyCOsGKeHhvjS-83" value="" style="edgeStyle=orthogonalEdgeStyle;rounded=0;orthogonalLoop=1;jettySize=auto;html=1;fontSize=12;endArrow=classic;endFill=1;fillColor=#dae8fc;strokeColor=#6c8ebf;fontColor=#000000;" parent="WIyWlLk6GJQsqaUBKTNV-1" source="WX159TqEyCOsGKeHhvjS-80" target="WX159TqEyCOsGKeHhvjS-82" edge="1">
          <mxGeometry relative="1" as="geometry" />
        </mxCell>
        <mxCell id="WX159TqEyCOsGKeHhvjS-80" value="已结束活动" style="whiteSpace=wrap;html=1;fontSize=15;fillColor=#dae8fc;strokeColor=#6c8ebf;rounded=1;glass=0;strokeWidth=1;shadow=0;fontStyle=1;fontColor=#000000;" parent="WIyWlLk6GJQsqaUBKTNV-1" vertex="1">
          <mxGeometry x="750" y="990" width="120" height="40" as="geometry" />
        </mxCell>
        <mxCell id="WX159TqEyCOsGKeHhvjS-82" value="活动资讯" style="whiteSpace=wrap;html=1;fontSize=15;fillColor=#dae8fc;strokeColor=#6c8ebf;rounded=1;glass=0;strokeWidth=1;shadow=0;fontStyle=1;fontColor=#000000;" parent="WIyWlLk6GJQsqaUBKTNV-1" vertex="1">
          <mxGeometry x="750" y="1110" width="120" height="40" as="geometry" />
        </mxCell>
        <mxCell id="WX159TqEyCOsGKeHhvjS-96" value="" style="edgeStyle=orthogonalEdgeStyle;rounded=0;orthogonalLoop=1;jettySize=auto;html=1;fontSize=12;endArrow=classic;endFill=1;fillColor=#dae8fc;strokeColor=#6c8ebf;fontColor=#000000;" parent="WIyWlLk6GJQsqaUBKTNV-1" source="WX159TqEyCOsGKeHhvjS-84" target="WX159TqEyCOsGKeHhvjS-95" edge="1">
          <mxGeometry relative="1" as="geometry" />
        </mxCell>
        <mxCell id="WX159TqEyCOsGKeHhvjS-84" value="取消报名" style="rhombus;whiteSpace=wrap;html=1;fontSize=15;fillColor=#dae8fc;strokeColor=#6c8ebf;rounded=1;glass=0;strokeWidth=1;shadow=0;fontStyle=1;fontColor=#000000;" parent="WIyWlLk6GJQsqaUBKTNV-1" vertex="1">
          <mxGeometry x="770" y="700" width="80" height="80" as="geometry" />
        </mxCell>
        <mxCell id="WX159TqEyCOsGKeHhvjS-92" value="提交/取消报名" style="whiteSpace=wrap;html=1;fontSize=15;fillColor=#dae8fc;strokeColor=#6c8ebf;rounded=1;glass=0;strokeWidth=1;shadow=0;fontStyle=1;fontColor=#000000;" parent="WIyWlLk6GJQsqaUBKTNV-1" vertex="1">
          <mxGeometry x="670" y="369.82" width="280" height="40" as="geometry" />
        </mxCell>
        <mxCell id="WX159TqEyCOsGKeHhvjS-95" value="活动签到" style="whiteSpace=wrap;html=1;fontSize=15;fillColor=#dae8fc;strokeColor=#6c8ebf;rounded=1;glass=0;strokeWidth=1;shadow=0;fontStyle=1;fontColor=#000000;" parent="WIyWlLk6GJQsqaUBKTNV-1" vertex="1">
          <mxGeometry x="750" y="870" width="120" height="40" as="geometry" />
        </mxCell>
        <mxCell id="WX159TqEyCOsGKeHhvjS-99" value="是" style="text;html=1;align=center;verticalAlign=middle;whiteSpace=wrap;rounded=0;labelBackgroundColor=#FFFFFF;labelBorderColor=none;fontSize=15;opacity=0;fontStyle=1;fontColor=#000000;" parent="WIyWlLk6GJQsqaUBKTNV-1" vertex="1">
          <mxGeometry x="900" y="712" width="60" height="30" as="geometry" />
        </mxCell>
        <mxCell id="WX159TqEyCOsGKeHhvjS-100" value="否" style="text;html=1;align=center;verticalAlign=middle;whiteSpace=wrap;rounded=0;labelBackgroundColor=#FFFFFF;labelBorderColor=none;fontSize=15;opacity=0;fontStyle=1;fontColor=#000000;" parent="WIyWlLk6GJQsqaUBKTNV-1" vertex="1">
          <mxGeometry x="790" y="800" width="60" height="30" as="geometry" />
        </mxCell>
        <mxCell id="WX159TqEyCOsGKeHhvjS-101" value="取消报名" style="rhombus;whiteSpace=wrap;html=1;fontSize=15;fillColor=#dae8fc;strokeColor=#6c8ebf;rounded=1;glass=0;strokeWidth=1;shadow=0;fontStyle=1;fontColor=#000000;" parent="WIyWlLk6GJQsqaUBKTNV-1" vertex="1">
          <mxGeometry x="770" y="460" width="80" height="80" as="geometry" />
        </mxCell>
        <mxCell id="WX159TqEyCOsGKeHhvjS-104" value="是" style="text;html=1;align=center;verticalAlign=middle;whiteSpace=wrap;rounded=0;labelBackgroundColor=#FFFFFF;labelBorderColor=none;fontSize=15;opacity=0;fontStyle=1;fontColor=#000000;" parent="WIyWlLk6GJQsqaUBKTNV-1" vertex="1">
          <mxGeometry x="900" y="473" width="60" height="30" as="geometry" />
        </mxCell>
        <mxCell id="WX159TqEyCOsGKeHhvjS-105" value="否" style="text;html=1;align=center;verticalAlign=middle;whiteSpace=wrap;rounded=0;labelBackgroundColor=#FFFFFF;labelBorderColor=none;fontSize=15;opacity=0;fontStyle=1;fontColor=#000000;" parent="WIyWlLk6GJQsqaUBKTNV-1" vertex="1">
          <mxGeometry x="790" y="550" width="60" height="30" as="geometry" />
        </mxCell>
        <mxCell id="WX159TqEyCOsGKeHhvjS-106" value="" style="endArrow=classic;html=1;rounded=0;fontSize=12;fillColor=#fff2cc;strokeColor=#d6b656;fontColor=#000000;entryX=0.5;entryY=0;entryDx=0;entryDy=0;startArrow=none;exitX=0.5;exitY=1;exitDx=0;exitDy=0;" parent="WIyWlLk6GJQsqaUBKTNV-1" source="CLERFuuJvT8i6gnzWTEx-48" target="CLERFuuJvT8i6gnzWTEx-42" edge="1">
          <mxGeometry width="50" height="50" relative="1" as="geometry">
            <mxPoint x="390" y="665" as="sourcePoint" />
            <mxPoint x="380" y="745" as="targetPoint" />
          </mxGeometry>
        </mxCell>
        <mxCell id="WX159TqEyCOsGKeHhvjS-108" value="通过" style="text;html=1;align=center;verticalAlign=middle;whiteSpace=wrap;rounded=0;labelBackgroundColor=#FFFFFF;labelBorderColor=none;fontSize=15;opacity=0;fontStyle=1;fontColor=#000000;" parent="WIyWlLk6GJQsqaUBKTNV-1" vertex="1">
          <mxGeometry x="800" y="656" width="60" height="30" as="geometry" />
        </mxCell>
        <mxCell id="WX159TqEyCOsGKeHhvjS-111" value="拒绝" style="text;html=1;align=center;verticalAlign=middle;whiteSpace=wrap;rounded=0;labelBackgroundColor=#FFFFFF;labelBorderColor=none;fontSize=15;opacity=0;fontStyle=1;fontColor=#000000;" parent="WIyWlLk6GJQsqaUBKTNV-1" vertex="1">
          <mxGeometry x="900" y="590" width="60" height="30" as="geometry" />
        </mxCell>
        <mxCell id="WX159TqEyCOsGKeHhvjS-112" value="删除活动" style="rounded=1;whiteSpace=wrap;html=1;fontSize=15;fillColor=#dae8fc;strokeColor=#6c8ebf;glass=0;strokeWidth=1;shadow=0;fontStyle=1;fontColor=#000000;" parent="WIyWlLk6GJQsqaUBKTNV-1" vertex="1">
          <mxGeometry x="1020" y="592" width="100" height="40" as="geometry" />
        </mxCell>
        <mxCell id="WX159TqEyCOsGKeHhvjS-113" value="" style="endArrow=classic;html=1;rounded=0;fontSize=12;exitX=1;exitY=0.5;exitDx=0;exitDy=0;entryX=0;entryY=0.5;entryDx=0;entryDy=0;fillColor=#dae8fc;strokeColor=#6c8ebf;fontColor=#000000;" parent="WIyWlLk6GJQsqaUBKTNV-1" source="WX159TqEyCOsGKeHhvjS-33" target="WX159TqEyCOsGKeHhvjS-112" edge="1">
          <mxGeometry width="50" height="50" relative="1" as="geometry">
            <mxPoint x="560" y="730" as="sourcePoint" />
            <mxPoint x="610" y="680" as="targetPoint" />
          </mxGeometry>
        </mxCell>
        <mxCell id="n0-gr-YXGU3YrfHo3i9w-1" value="问题" style="swimlane;fontSize=15;gradientColor=none;opacity=0;fontStyle=1;labelBorderColor=none;labelBackgroundColor=#FF0000;fontColor=#000000;" parent="WIyWlLk6GJQsqaUBKTNV-1" vertex="1" collapsed="1">
          <mxGeometry x="790" y="10" width="60" height="23" as="geometry">
            <mxRectangle x="640" y="208.5" width="220" height="191.5" as="alternateBounds" />
          </mxGeometry>
        </mxCell>
        <mxCell id="n0-gr-YXGU3YrfHo3i9w-2" value="1. 是否增加非会员在小程序报名活动&lt;br&gt;&lt;br&gt;2. 此处分为为自己报名、为他人报名，为他人报名的情况需要以短讯的方式通知他人，小程序使用者在个人中心收到通知。&lt;br&gt;&lt;br&gt;3. 会员、非会员报名逻辑整理&lt;b&gt;【见详细流程图】。&lt;/b&gt;" style="rounded=0;whiteSpace=wrap;html=1;fontSize=12;gradientColor=none;opacity=0;align=left;verticalAlign=top;fontColor=#000000;" parent="n0-gr-YXGU3YrfHo3i9w-1" vertex="1">
          <mxGeometry x="20" y="30" width="180" height="110" as="geometry" />
        </mxCell>
        <mxCell id="PyewcUp1_fF9FZebxI-6-1" value="问题" style="swimlane;fontSize=15;gradientColor=none;opacity=0;fontStyle=1;labelBorderColor=none;labelBackgroundColor=#FF0000;fontColor=#000000;" parent="WIyWlLk6GJQsqaUBKTNV-1" vertex="1" collapsed="1">
          <mxGeometry x="440" y="330" width="60" height="23" as="geometry">
            <mxRectangle x="270" y="320" width="100" height="90" as="alternateBounds" />
          </mxGeometry>
        </mxCell>
        <mxCell id="PyewcUp1_fF9FZebxI-6-2" value="1. 报名列表包括通过各种方式报名的人员。" style="rounded=0;whiteSpace=wrap;html=1;fontSize=12;gradientColor=none;opacity=0;align=left;verticalAlign=top;" parent="PyewcUp1_fF9FZebxI-6-1" vertex="1">
          <mxGeometry x="10" y="20.75" width="70" height="49.25" as="geometry" />
        </mxCell>
        <mxCell id="PyewcUp1_fF9FZebxI-6-5" value="问题" style="swimlane;fontSize=15;gradientColor=none;opacity=0;fontStyle=1;labelBorderColor=none;labelBackgroundColor=#FF0000;fontColor=#000000;" parent="WIyWlLk6GJQsqaUBKTNV-1" vertex="1" collapsed="1">
          <mxGeometry x="830" y="460" width="60" height="23" as="geometry">
            <mxRectangle x="610" y="428.5" width="150" height="101.5" as="alternateBounds" />
          </mxGeometry>
        </mxCell>
        <mxCell id="PyewcUp1_fF9FZebxI-6-6" value="增加取消报名功能" style="rounded=0;whiteSpace=wrap;html=1;fontSize=12;gradientColor=none;opacity=0;align=left;verticalAlign=top;fontColor=#000000;" parent="PyewcUp1_fF9FZebxI-6-5" vertex="1">
          <mxGeometry x="20" y="30" width="110" height="40" as="geometry" />
        </mxCell>
        <mxCell id="ZMXHz---HxX1kc0FEd8S-0" value="问题" style="swimlane;fontSize=15;gradientColor=none;opacity=0;fontStyle=1;labelBorderColor=none;labelBackgroundColor=#FF0000;fontColor=#000000;" parent="WIyWlLk6GJQsqaUBKTNV-1" vertex="1" collapsed="1">
          <mxGeometry x="1110" y="608.5" width="60" height="23" as="geometry">
            <mxRectangle x="780" y="793.5" width="150" height="101.5" as="alternateBounds" />
          </mxGeometry>
        </mxCell>
        <mxCell id="ZMXHz---HxX1kc0FEd8S-1" value="被拒绝后，小程序端只能删除活动，无法再次报名。可联络管理员再次通过。" style="rounded=0;whiteSpace=wrap;html=1;fontSize=12;gradientColor=none;opacity=0;align=left;verticalAlign=top;fontColor=#000000;" parent="ZMXHz---HxX1kc0FEd8S-0" vertex="1">
          <mxGeometry x="20" y="30" width="110" height="70" as="geometry" />
        </mxCell>
        <mxCell id="Q8CTjy8gL7TWKLckY6P0-0" value="等后台独立" style="swimlane;fontSize=15;opacity=0;fontStyle=1;labelBorderColor=none;labelBackgroundColor=#FFFF00;fillColor=#e1d5e7;strokeColor=#9673a6;" parent="WIyWlLk6GJQsqaUBKTNV-1" vertex="1" collapsed="1">
          <mxGeometry x="440" y="-167" width="110" height="23" as="geometry">
            <mxRectangle x="280" y="88.5" width="220" height="170" as="alternateBounds" />
          </mxGeometry>
        </mxCell>
        <mxCell id="Q8CTjy8gL7TWKLckY6P0-1" value="1. 编辑项重新设计&lt;b&gt;【见详细流程图】&lt;/b&gt;&lt;br&gt;（1）活动基本信息&lt;br&gt;（2）报名填报信息&lt;br&gt;（3）活动限制条件&lt;br&gt;&lt;br&gt;2. 编辑排版重新设计&lt;b&gt;【见蓝湖】&lt;/b&gt;&lt;br&gt;（1）增加封面图、增加排版&amp;nbsp;" style="rounded=0;whiteSpace=wrap;html=1;fontSize=12;gradientColor=none;opacity=0;align=left;verticalAlign=top;" parent="Q8CTjy8gL7TWKLckY6P0-0" vertex="1">
          <mxGeometry x="20" y="30" width="240" height="110" as="geometry" />
        </mxCell>
        <mxCell id="Q8CTjy8gL7TWKLckY6P0-2" value="等APP" style="swimlane;fontSize=15;opacity=0;fontStyle=1;labelBorderColor=none;labelBackgroundColor=#33FFFF;fillColor=#e1d5e7;strokeColor=#9673a6;" parent="WIyWlLk6GJQsqaUBKTNV-1" vertex="1" collapsed="1">
          <mxGeometry x="780" y="33" width="80" height="23" as="geometry">
            <mxRectangle x="280" y="88.5" width="220" height="170" as="alternateBounds" />
          </mxGeometry>
        </mxCell>
        <mxCell id="Q8CTjy8gL7TWKLckY6P0-3" value="1. 编辑项重新设计&lt;b&gt;【见详细流程图】&lt;/b&gt;&lt;br&gt;（1）活动基本信息&lt;br&gt;（2）报名填报信息&lt;br&gt;（3）活动限制条件&lt;br&gt;&lt;br&gt;2. 编辑排版重新设计&lt;b&gt;【见蓝湖】&lt;/b&gt;&lt;br&gt;（1）增加封面图、增加排版&amp;nbsp;" style="rounded=0;whiteSpace=wrap;html=1;fontSize=12;gradientColor=none;opacity=0;align=left;verticalAlign=top;" parent="Q8CTjy8gL7TWKLckY6P0-2" vertex="1">
          <mxGeometry x="20" y="30" width="240" height="110" as="geometry" />
        </mxCell>
        <mxCell id="Q8CTjy8gL7TWKLckY6P0-9" value="" style="rounded=0;whiteSpace=wrap;html=1;labelBackgroundColor=#FFFF00;strokeWidth=10;shadow=1;perimeterSpacing=10;opacity=50;fillColor=#d5e8d4;strokeColor=#82b366;" parent="WIyWlLk6GJQsqaUBKTNV-1" vertex="1">
          <mxGeometry x="-740" y="-2190" width="1500" height="870" as="geometry" />
        </mxCell>
        <mxCell id="Q8CTjy8gL7TWKLckY6P0-13" value="等后台独立" style="swimlane;fontSize=15;opacity=0;fontStyle=1;labelBorderColor=none;labelBackgroundColor=#FFFF00;fillColor=#e1d5e7;strokeColor=#9673a6;" parent="WIyWlLk6GJQsqaUBKTNV-1" vertex="1" collapsed="1">
          <mxGeometry x="420" y="353" width="130" height="27.18" as="geometry">
            <mxRectangle x="280" y="88.5" width="220" height="170" as="alternateBounds" />
          </mxGeometry>
        </mxCell>
        <mxCell id="Q8CTjy8gL7TWKLckY6P0-14" value="1. 编辑项重新设计&lt;b&gt;【见详细流程图】&lt;/b&gt;&lt;br&gt;（1）活动基本信息&lt;br&gt;（2）报名填报信息&lt;br&gt;（3）活动限制条件&lt;br&gt;&lt;br&gt;2. 编辑排版重新设计&lt;b&gt;【见蓝湖】&lt;/b&gt;&lt;br&gt;（1）增加封面图、增加排版&amp;nbsp;" style="rounded=0;whiteSpace=wrap;html=1;fontSize=12;gradientColor=none;opacity=0;align=left;verticalAlign=top;" parent="Q8CTjy8gL7TWKLckY6P0-13" vertex="1">
          <mxGeometry x="20" y="30" width="240" height="110" as="geometry" />
        </mxCell>
        <mxCell id="3B7eSZ0378xvD8d0vk0m-49" value="" style="group;rotation=90;" parent="WIyWlLk6GJQsqaUBKTNV-1" vertex="1" connectable="0">
          <mxGeometry x="-620" y="-1880" width="1315" height="610" as="geometry" />
        </mxCell>
        <mxCell id="Q8CTjy8gL7TWKLckY6P0-10" value="会员簿" style="rounded=1;whiteSpace=wrap;html=1;fontSize=15;glass=0;strokeWidth=1;shadow=0;fontStyle=1;fillColor=#fff2cc;strokeColor=#d6b656;fontColor=#000000;" parent="3B7eSZ0378xvD8d0vk0m-49" vertex="1">
          <mxGeometry y="195.5" width="160" height="39" as="geometry" />
        </mxCell>
        <mxCell id="Q8CTjy8gL7TWKLckY6P0-11" value="添加会员" style="rounded=1;whiteSpace=wrap;html=1;fontSize=15;glass=0;strokeWidth=1;shadow=0;fontStyle=1;fillColor=#fff2cc;strokeColor=#d6b656;fontColor=#000000;" parent="3B7eSZ0378xvD8d0vk0m-49" vertex="1">
          <mxGeometry x="5" width="150" height="40" as="geometry" />
        </mxCell>
        <mxCell id="3B7eSZ0378xvD8d0vk0m-1" value="是否加入社团/机构" style="rhombus;whiteSpace=wrap;html=1;fontSize=15;fillColor=#dae8fc;strokeColor=#6c8ebf;rounded=1;glass=0;strokeWidth=1;shadow=0;fontStyle=1;" parent="3B7eSZ0378xvD8d0vk0m-49" vertex="1">
          <mxGeometry x="863" y="144.5" width="145" height="140" as="geometry" />
        </mxCell>
        <mxCell id="3B7eSZ0378xvD8d0vk0m-9" value="非会员" style="ellipse;whiteSpace=wrap;html=1;fontSize=15;fillColor=#f8cecc;strokeColor=#b85450;rounded=1;glass=0;strokeWidth=1;shadow=0;fontStyle=1;" parent="3B7eSZ0378xvD8d0vk0m-49" vertex="1">
          <mxGeometry x="1195" y="184.5" width="120" height="60" as="geometry" />
        </mxCell>
        <mxCell id="3B7eSZ0378xvD8d0vk0m-10" value="" style="edgeStyle=orthogonalEdgeStyle;rounded=0;orthogonalLoop=1;jettySize=auto;html=1;" parent="3B7eSZ0378xvD8d0vk0m-49" source="3B7eSZ0378xvD8d0vk0m-1" target="3B7eSZ0378xvD8d0vk0m-9" edge="1">
          <mxGeometry relative="1" as="geometry" />
        </mxCell>
        <mxCell id="3B7eSZ0378xvD8d0vk0m-30" value="" style="edgeStyle=orthogonalEdgeStyle;rounded=0;orthogonalLoop=1;jettySize=auto;html=1;startArrow=none;" parent="3B7eSZ0378xvD8d0vk0m-49" source="3B7eSZ0378xvD8d0vk0m-31" edge="1">
          <mxGeometry relative="1" as="geometry">
            <mxPoint x="424.99999999999955" y="214.5" as="targetPoint" />
          </mxGeometry>
        </mxCell>
        <mxCell id="3B7eSZ0378xvD8d0vk0m-23" value="注册会员&lt;br&gt;（填写注册信息）" style="whiteSpace=wrap;html=1;fontSize=15;fillColor=#dae8fc;strokeColor=#6c8ebf;rounded=1;glass=0;strokeWidth=1;shadow=0;fontStyle=1;" parent="3B7eSZ0378xvD8d0vk0m-49" vertex="1">
          <mxGeometry x="565" y="186.75" width="140" height="55.5" as="geometry" />
        </mxCell>
        <mxCell id="3B7eSZ0378xvD8d0vk0m-24" value="" style="edgeStyle=orthogonalEdgeStyle;rounded=0;orthogonalLoop=1;jettySize=auto;html=1;" parent="3B7eSZ0378xvD8d0vk0m-49" source="3B7eSZ0378xvD8d0vk0m-1" target="3B7eSZ0378xvD8d0vk0m-23" edge="1">
          <mxGeometry relative="1" as="geometry" />
        </mxCell>
        <mxCell id="3B7eSZ0378xvD8d0vk0m-27" value="否" style="text;html=1;strokeColor=none;fillColor=none;align=center;verticalAlign=middle;whiteSpace=wrap;rounded=0;" parent="3B7eSZ0378xvD8d0vk0m-49" vertex="1">
          <mxGeometry x="1065" y="180" width="60" height="30" as="geometry" />
        </mxCell>
        <mxCell id="3B7eSZ0378xvD8d0vk0m-28" value="是" style="text;html=1;strokeColor=none;fillColor=none;align=center;verticalAlign=middle;whiteSpace=wrap;rounded=0;" parent="3B7eSZ0378xvD8d0vk0m-49" vertex="1">
          <mxGeometry x="745" y="184.5" width="60" height="30" as="geometry" />
        </mxCell>
        <mxCell id="3B7eSZ0378xvD8d0vk0m-31" value="提交信息给后台管理员" style="text;html=1;strokeColor=none;fillColor=none;align=center;verticalAlign=middle;whiteSpace=wrap;rounded=0;" parent="3B7eSZ0378xvD8d0vk0m-49" vertex="1">
          <mxGeometry x="485" y="199.5" width="70" height="30" as="geometry" />
        </mxCell>
        <mxCell id="3B7eSZ0378xvD8d0vk0m-32" value="" style="edgeStyle=orthogonalEdgeStyle;rounded=0;orthogonalLoop=1;jettySize=auto;html=1;endArrow=none;" parent="3B7eSZ0378xvD8d0vk0m-49" source="3B7eSZ0378xvD8d0vk0m-23" target="3B7eSZ0378xvD8d0vk0m-31" edge="1">
          <mxGeometry relative="1" as="geometry">
            <mxPoint x="565" y="214.51999999999998" as="sourcePoint" />
            <mxPoint x="475" y="214.51999999999998" as="targetPoint" />
          </mxGeometry>
        </mxCell>
        <mxCell id="3B7eSZ0378xvD8d0vk0m-34" value="会员审批" style="rhombus;whiteSpace=wrap;html=1;fontSize=15;fillColor=#fff2cc;strokeColor=#d6b656;rounded=1;glass=0;strokeWidth=1;shadow=0;fontStyle=1;" parent="3B7eSZ0378xvD8d0vk0m-49" vertex="1">
          <mxGeometry x="285" y="149.5" width="140" height="130" as="geometry" />
        </mxCell>
        <mxCell id="3B7eSZ0378xvD8d0vk0m-37" value="" style="edgeStyle=orthogonalEdgeStyle;rounded=0;orthogonalLoop=1;jettySize=auto;html=1;" parent="3B7eSZ0378xvD8d0vk0m-49" source="3B7eSZ0378xvD8d0vk0m-31" target="3B7eSZ0378xvD8d0vk0m-34" edge="1">
          <mxGeometry relative="1" as="geometry" />
        </mxCell>
        <mxCell id="3B7eSZ0378xvD8d0vk0m-35" value="" style="endArrow=classic;html=1;rounded=0;entryX=1;entryY=0.5;entryDx=0;entryDy=0;" parent="3B7eSZ0378xvD8d0vk0m-49" source="3B7eSZ0378xvD8d0vk0m-34" target="Q8CTjy8gL7TWKLckY6P0-10" edge="1">
          <mxGeometry width="50" height="50" relative="1" as="geometry">
            <mxPoint x="245" y="210" as="sourcePoint" />
            <mxPoint x="245" y="50" as="targetPoint" />
          </mxGeometry>
        </mxCell>
        <mxCell id="3B7eSZ0378xvD8d0vk0m-39" value="通过" style="text;html=1;strokeColor=none;fillColor=none;align=center;verticalAlign=middle;whiteSpace=wrap;rounded=0;" parent="3B7eSZ0378xvD8d0vk0m-49" vertex="1">
          <mxGeometry x="195" y="186.75" width="60" height="33.25" as="geometry" />
        </mxCell>
        <mxCell id="3B7eSZ0378xvD8d0vk0m-38" value="" style="edgeStyle=orthogonalEdgeStyle;rounded=0;orthogonalLoop=1;jettySize=auto;html=1;" parent="3B7eSZ0378xvD8d0vk0m-49" source="3B7eSZ0378xvD8d0vk0m-31" target="3B7eSZ0378xvD8d0vk0m-34" edge="1">
          <mxGeometry relative="1" as="geometry" />
        </mxCell>
        <mxCell id="3B7eSZ0378xvD8d0vk0m-40" value="" style="endArrow=classic;html=1;rounded=0;exitX=0.5;exitY=1;exitDx=0;exitDy=0;" parent="3B7eSZ0378xvD8d0vk0m-49" source="3B7eSZ0378xvD8d0vk0m-34" target="3B7eSZ0378xvD8d0vk0m-9" edge="1">
          <mxGeometry width="50" height="50" relative="1" as="geometry">
            <mxPoint x="295.19276160503523" y="224.67899291896128" as="sourcePoint" />
            <mxPoint x="1695" y="360" as="targetPoint" />
            <Array as="points">
              <mxPoint x="355" y="390" />
              <mxPoint x="1255" y="390" />
            </Array>
          </mxGeometry>
        </mxCell>
        <mxCell id="3B7eSZ0378xvD8d0vk0m-41" value="不通过" style="text;html=1;strokeColor=none;fillColor=none;align=center;verticalAlign=middle;whiteSpace=wrap;rounded=0;" parent="3B7eSZ0378xvD8d0vk0m-49" vertex="1">
          <mxGeometry x="772" y="358" width="60" height="33.25" as="geometry" />
        </mxCell>
        <mxCell id="3B7eSZ0378xvD8d0vk0m-42" value="" style="edgeStyle=orthogonalEdgeStyle;rounded=0;orthogonalLoop=1;jettySize=auto;html=1;entryX=0.5;entryY=0;entryDx=0;entryDy=0;" parent="3B7eSZ0378xvD8d0vk0m-49" target="Q8CTjy8gL7TWKLckY6P0-10" edge="1">
          <mxGeometry relative="1" as="geometry">
            <mxPoint x="79.63" y="40" as="sourcePoint" />
            <mxPoint x="79.63" y="100" as="targetPoint" />
            <Array as="points">
              <mxPoint x="80" y="90" />
            </Array>
          </mxGeometry>
        </mxCell>
        <mxCell id="3B7eSZ0378xvD8d0vk0m-46" value="添加成功" style="text;html=1;strokeColor=none;fillColor=none;align=center;verticalAlign=middle;whiteSpace=wrap;rounded=0;" parent="3B7eSZ0378xvD8d0vk0m-49" vertex="1">
          <mxGeometry x="85" y="100" width="60" height="33.25" as="geometry" />
        </mxCell>
        <mxCell id="3B7eSZ0378xvD8d0vk0m-47" value="会员" style="ellipse;whiteSpace=wrap;html=1;fontSize=15;fillColor=#f8cecc;strokeColor=#b85450;rounded=1;glass=0;strokeWidth=1;shadow=0;fontStyle=1;" parent="3B7eSZ0378xvD8d0vk0m-49" vertex="1">
          <mxGeometry x="20" y="304" width="120" height="60" as="geometry" />
        </mxCell>
        <mxCell id="3B7eSZ0378xvD8d0vk0m-48" value="" style="edgeStyle=orthogonalEdgeStyle;rounded=0;orthogonalLoop=1;jettySize=auto;html=1;" parent="3B7eSZ0378xvD8d0vk0m-49" source="Q8CTjy8gL7TWKLckY6P0-10" target="3B7eSZ0378xvD8d0vk0m-47" edge="1">
          <mxGeometry relative="1" as="geometry" />
        </mxCell>
        <mxCell id="3B7eSZ0378xvD8d0vk0m-51" value="" style="rounded=0;whiteSpace=wrap;html=1;labelBackgroundColor=#FFFF00;strokeWidth=10;shadow=1;perimeterSpacing=10;opacity=50;fillColor=#d5e8d4;strokeColor=#82b366;" parent="WIyWlLk6GJQsqaUBKTNV-1" vertex="1">
          <mxGeometry x="-750" y="-3320" width="1420" height="770" as="geometry" />
        </mxCell>
        <mxCell id="3B7eSZ0378xvD8d0vk0m-52" value="&lt;font style=&quot;font-size: 24px&quot;&gt;&lt;b&gt;关于社团、机构&lt;/b&gt;&lt;/font&gt;" style="text;html=1;strokeColor=none;fillColor=none;align=center;verticalAlign=middle;whiteSpace=wrap;rounded=0;" parent="WIyWlLk6GJQsqaUBKTNV-1" vertex="1">
          <mxGeometry x="-730" y="-3380" width="220" height="50" as="geometry" />
        </mxCell>
        <mxCell id="3B7eSZ0378xvD8d0vk0m-60" value="" style="group" parent="WIyWlLk6GJQsqaUBKTNV-1" vertex="1" connectable="0">
          <mxGeometry x="-600" y="-3180" width="360" height="190" as="geometry" />
        </mxCell>
        <mxCell id="3B7eSZ0378xvD8d0vk0m-53" value="分会" style="rounded=0;whiteSpace=wrap;html=1;fontSize=24;" parent="3B7eSZ0378xvD8d0vk0m-60" vertex="1">
          <mxGeometry width="90" height="190" as="geometry" />
        </mxCell>
        <mxCell id="3B7eSZ0378xvD8d0vk0m-54" value="分会" style="rounded=0;whiteSpace=wrap;html=1;fontSize=24;" parent="3B7eSZ0378xvD8d0vk0m-60" vertex="1">
          <mxGeometry x="90" width="90" height="190" as="geometry" />
        </mxCell>
        <mxCell id="3B7eSZ0378xvD8d0vk0m-55" value="分会" style="rounded=0;whiteSpace=wrap;html=1;fontSize=24;" parent="3B7eSZ0378xvD8d0vk0m-60" vertex="1">
          <mxGeometry x="180" width="90" height="190" as="geometry" />
        </mxCell>
        <mxCell id="3B7eSZ0378xvD8d0vk0m-56" value="分会" style="rounded=0;whiteSpace=wrap;html=1;fontSize=24;" parent="3B7eSZ0378xvD8d0vk0m-60" vertex="1">
          <mxGeometry x="270" width="90" height="190" as="geometry" />
        </mxCell>
        <mxCell id="3B7eSZ0378xvD8d0vk0m-61" value="总社团" style="text;html=1;strokeColor=none;fillColor=none;align=center;verticalAlign=middle;whiteSpace=wrap;rounded=0;fontSize=24;opacity=50;" parent="WIyWlLk6GJQsqaUBKTNV-1" vertex="1">
          <mxGeometry x="-600" y="-3220" width="100" height="30" as="geometry" />
        </mxCell>
        <mxCell id="3B7eSZ0378xvD8d0vk0m-76" value="&lt;font size=&quot;5&quot;&gt;&lt;b&gt;社团/机构 里会员和非会员&lt;/b&gt;&lt;/font&gt;" style="text;html=1;strokeColor=none;fillColor=none;align=center;verticalAlign=middle;whiteSpace=wrap;rounded=0;" parent="WIyWlLk6GJQsqaUBKTNV-1" vertex="1">
          <mxGeometry x="-740" y="-2300" width="300" height="50" as="geometry" />
        </mxCell>
        <mxCell id="3B7eSZ0378xvD8d0vk0m-0" value="手机号登录SOC" style="rounded=1;whiteSpace=wrap;html=1;fontSize=15;glass=0;strokeWidth=1;shadow=0;fontStyle=1;fillColor=#dae8fc;strokeColor=#6c8ebf;" parent="WIyWlLk6GJQsqaUBKTNV-1" vertex="1">
          <mxGeometry x="255" y="-2050" width="120" height="40" as="geometry" />
        </mxCell>
        <mxCell id="3B7eSZ0378xvD8d0vk0m-2" value="" style="edgeStyle=orthogonalEdgeStyle;rounded=0;orthogonalLoop=1;jettySize=auto;html=1;entryX=0.5;entryY=0;entryDx=0;entryDy=0;" parent="WIyWlLk6GJQsqaUBKTNV-1" source="3B7eSZ0378xvD8d0vk0m-0" target="3B7eSZ0378xvD8d0vk0m-77" edge="1">
          <mxGeometry relative="1" as="geometry">
            <mxPoint x="315" y="-1930" as="targetPoint" />
          </mxGeometry>
        </mxCell>
        <mxCell id="3B7eSZ0378xvD8d0vk0m-26" value="成功" style="text;html=1;strokeColor=none;fillColor=none;align=center;verticalAlign=middle;whiteSpace=wrap;rounded=0;" parent="WIyWlLk6GJQsqaUBKTNV-1" vertex="1">
          <mxGeometry x="315" y="-1960" width="60" height="30" as="geometry" />
        </mxCell>
        <mxCell id="3B7eSZ0378xvD8d0vk0m-77" value="选择社团/机构" style="rounded=1;whiteSpace=wrap;html=1;fontSize=15;glass=0;strokeWidth=1;shadow=0;fontStyle=1;fillColor=#dae8fc;strokeColor=#6c8ebf;" parent="WIyWlLk6GJQsqaUBKTNV-1" vertex="1">
          <mxGeometry x="255" y="-1890" width="120" height="40" as="geometry" />
        </mxCell>
        <mxCell id="3B7eSZ0378xvD8d0vk0m-79" value="" style="edgeStyle=orthogonalEdgeStyle;rounded=0;orthogonalLoop=1;jettySize=auto;html=1;entryX=0.502;entryY=0.019;entryDx=0;entryDy=0;entryPerimeter=0;" parent="WIyWlLk6GJQsqaUBKTNV-1" target="3B7eSZ0378xvD8d0vk0m-1" edge="1">
          <mxGeometry relative="1" as="geometry">
            <mxPoint x="315" y="-1850" as="sourcePoint" />
            <mxPoint x="314.6" y="-1810" as="targetPoint" />
          </mxGeometry>
        </mxCell>
        <mxCell id="3B7eSZ0378xvD8d0vk0m-106" value="" style="edgeStyle=orthogonalEdgeStyle;rounded=0;orthogonalLoop=1;jettySize=auto;html=1;fontSize=24;entryX=0.174;entryY=0.025;entryDx=0;entryDy=0;entryPerimeter=0;" parent="WIyWlLk6GJQsqaUBKTNV-1" source="3B7eSZ0378xvD8d0vk0m-104" target="3B7eSZ0378xvD8d0vk0m-23" edge="1">
          <mxGeometry relative="1" as="geometry">
            <mxPoint x="-100" y="-1860" as="targetPoint" />
          </mxGeometry>
        </mxCell>
        <mxCell id="3B7eSZ0378xvD8d0vk0m-108" value="" style="edgeStyle=orthogonalEdgeStyle;rounded=0;orthogonalLoop=1;jettySize=auto;html=1;fontSize=24;entryX=1;entryY=0.5;entryDx=0;entryDy=0;" parent="WIyWlLk6GJQsqaUBKTNV-1" source="3B7eSZ0378xvD8d0vk0m-104" target="Q8CTjy8gL7TWKLckY6P0-11" edge="1">
          <mxGeometry relative="1" as="geometry">
            <mxPoint x="-460" y="-1683" as="targetPoint" />
            <Array as="points">
              <mxPoint x="-440" y="-1860" />
              <mxPoint x="-440" y="-1860" />
            </Array>
          </mxGeometry>
        </mxCell>
        <mxCell id="3B7eSZ0378xvD8d0vk0m-104" value="入会注册项配置" style="rounded=1;whiteSpace=wrap;html=1;fontSize=15;glass=0;strokeWidth=1;shadow=0;fontStyle=1;fillColor=#fff2cc;strokeColor=#d6b656;fontColor=#000000;" parent="WIyWlLk6GJQsqaUBKTNV-1" vertex="1">
          <mxGeometry x="-350" y="-1880" width="170" height="40" as="geometry" />
        </mxCell>
        <mxCell id="3B7eSZ0378xvD8d0vk0m-110" value="问题" style="swimlane;fontSize=15;fillColor=none;opacity=50;labelBackgroundColor=#CC0000;strokeColor=none;" parent="WIyWlLk6GJQsqaUBKTNV-1" vertex="1" collapsed="1">
          <mxGeometry x="-180" y="-1880" width="60" height="23" as="geometry">
            <mxRectangle x="-180" y="-1880" width="260" height="198.5" as="alternateBounds" />
          </mxGeometry>
        </mxCell>
        <mxCell id="3B7eSZ0378xvD8d0vk0m-112" value="&lt;ol&gt;&lt;li&gt;每个机构的注册项信息不同：目前方案是提供固定的注册项，供管理员选择。（“自定义栏位”功能是否开放）&lt;/li&gt;&lt;li&gt;会员簿的栏位结构应该同管理员配置的入会注册项一致&lt;/li&gt;&lt;/ol&gt;" style="text;strokeColor=none;fillColor=none;html=1;whiteSpace=wrap;verticalAlign=middle;overflow=hidden;labelBackgroundColor=none;fontSize=15;opacity=50;" parent="3B7eSZ0378xvD8d0vk0m-110" vertex="1">
          <mxGeometry x="-2" y="30" width="262" height="130" as="geometry" />
        </mxCell>
        <mxCell id="3B7eSZ0378xvD8d0vk0m-113" value="问题" style="swimlane;fontSize=15;fillColor=none;opacity=50;labelBackgroundColor=#CC0000;strokeColor=none;" parent="WIyWlLk6GJQsqaUBKTNV-1" vertex="1" collapsed="1">
          <mxGeometry x="375" y="-1890" width="60" height="23" as="geometry">
            <mxRectangle x="375" y="-1890" width="260" height="200" as="alternateBounds" />
          </mxGeometry>
        </mxCell>
        <mxCell id="3B7eSZ0378xvD8d0vk0m-114" value="&lt;ol&gt;&lt;li&gt;目前只能够选择总会，属会是作为标签的概念，且在填写总会注册也信息时只能选择一个属会；&lt;/li&gt;&lt;li&gt;用户先选择要加入的社团/机构，弹出相应社团/机构的注册页面；&lt;/li&gt;&lt;/ol&gt;" style="text;strokeColor=none;fillColor=none;html=1;whiteSpace=wrap;verticalAlign=top;overflow=hidden;labelBackgroundColor=none;fontSize=15;opacity=50;" parent="3B7eSZ0378xvD8d0vk0m-113" vertex="1">
          <mxGeometry x="-2" y="30" width="262" height="130" as="geometry" />
        </mxCell>
        <mxCell id="3B7eSZ0378xvD8d0vk0m-116" value="" style="group" parent="WIyWlLk6GJQsqaUBKTNV-1" vertex="1" connectable="0">
          <mxGeometry x="840" y="-3400" width="720" height="830" as="geometry" />
        </mxCell>
        <mxCell id="3B7eSZ0378xvD8d0vk0m-62" value="" style="rounded=0;whiteSpace=wrap;html=1;labelBackgroundColor=#FFFF00;strokeWidth=10;shadow=1;perimeterSpacing=10;opacity=50;fillColor=#d5e8d4;strokeColor=#82b366;" parent="3B7eSZ0378xvD8d0vk0m-116" vertex="1">
          <mxGeometry y="60" width="720" height="770" as="geometry" />
        </mxCell>
        <mxCell id="3B7eSZ0378xvD8d0vk0m-63" value="&lt;font size=&quot;5&quot;&gt;&lt;b&gt;关于资讯、福利、活动&lt;/b&gt;&lt;/font&gt;" style="text;html=1;strokeColor=none;fillColor=none;align=center;verticalAlign=middle;whiteSpace=wrap;rounded=0;" parent="3B7eSZ0378xvD8d0vk0m-116" vertex="1">
          <mxGeometry x="20" width="270" height="50" as="geometry" />
        </mxCell>
        <mxCell id="3B7eSZ0378xvD8d0vk0m-64" value="" style="group;fontSize=24;" parent="3B7eSZ0378xvD8d0vk0m-116" vertex="1" connectable="0">
          <mxGeometry x="100" y="212" width="440" height="340" as="geometry" />
        </mxCell>
        <mxCell id="3B7eSZ0378xvD8d0vk0m-65" value="&lt;font style=&quot;font-size: 24px&quot;&gt;资讯&lt;/font&gt;" style="rounded=1;whiteSpace=wrap;html=1;fontSize=15;glass=0;strokeWidth=1;shadow=0;fontStyle=1;fillColor=#e1d5e7;strokeColor=#9673a6;" parent="3B7eSZ0378xvD8d0vk0m-64" vertex="1">
          <mxGeometry y="-9.35234215885947" width="150.85714285714286" height="53.441955193482684" as="geometry" />
        </mxCell>
        <mxCell id="3B7eSZ0378xvD8d0vk0m-66" value="&lt;font style=&quot;font-size: 24px&quot;&gt;福利&lt;/font&gt;" style="rounded=1;whiteSpace=wrap;html=1;fontSize=15;glass=0;strokeWidth=1;shadow=0;fontStyle=1;fillColor=#e1d5e7;strokeColor=#9673a6;" parent="3B7eSZ0378xvD8d0vk0m-64" vertex="1">
          <mxGeometry y="52.10590631364562" width="150.85714285714286" height="53.441955193482684" as="geometry" />
        </mxCell>
        <mxCell id="3B7eSZ0378xvD8d0vk0m-67" value="&lt;font style=&quot;font-size: 24px&quot;&gt;活动&lt;/font&gt;" style="rounded=1;whiteSpace=wrap;html=1;fontSize=15;glass=0;strokeWidth=1;shadow=0;fontStyle=1;fillColor=#e1d5e7;strokeColor=#9673a6;" parent="3B7eSZ0378xvD8d0vk0m-64" vertex="1">
          <mxGeometry y="113.56415478615071" width="150.85714285714286" height="49.43380855397148" as="geometry" />
        </mxCell>
        <mxCell id="3B7eSZ0378xvD8d0vk0m-68" value="&lt;font style=&quot;font-size: 24px&quot;&gt;仅会员可参加&lt;/font&gt;" style="ellipse;whiteSpace=wrap;html=1;fontSize=15;fillColor=#e1d5e7;strokeColor=#9673a6;rounded=1;glass=0;strokeWidth=1;shadow=0;fontStyle=1;" parent="3B7eSZ0378xvD8d0vk0m-64" vertex="1">
          <mxGeometry x="251.42857142857142" y="9.35234215885947" width="188.57142857142856" height="187.0468431771894" as="geometry" />
        </mxCell>
        <mxCell id="3B7eSZ0378xvD8d0vk0m-69" value="" style="edgeStyle=orthogonalEdgeStyle;rounded=0;orthogonalLoop=1;jettySize=auto;html=1;" parent="3B7eSZ0378xvD8d0vk0m-64" source="3B7eSZ0378xvD8d0vk0m-66" target="3B7eSZ0378xvD8d0vk0m-68" edge="1">
          <mxGeometry relative="1" as="geometry">
            <Array as="points">
              <mxPoint x="201.14285714285714" y="80.16293279022403" />
              <mxPoint x="201.14285714285714" y="102.87576374745417" />
            </Array>
          </mxGeometry>
        </mxCell>
        <mxCell id="3B7eSZ0378xvD8d0vk0m-70" value="" style="edgeStyle=orthogonalEdgeStyle;rounded=0;orthogonalLoop=1;jettySize=auto;html=1;" parent="3B7eSZ0378xvD8d0vk0m-64" source="3B7eSZ0378xvD8d0vk0m-67" target="3B7eSZ0378xvD8d0vk0m-68" edge="1">
          <mxGeometry relative="1" as="geometry">
            <Array as="points">
              <mxPoint x="201.14285714285714" y="133.6048879837067" />
              <mxPoint x="201.14285714285714" y="102.87576374745417" />
            </Array>
          </mxGeometry>
        </mxCell>
        <mxCell id="3B7eSZ0378xvD8d0vk0m-71" value="&lt;font style=&quot;font-size: 24px&quot;&gt;兄弟会员可参加&lt;/font&gt;" style="ellipse;whiteSpace=wrap;html=1;fontSize=15;fillColor=#e1d5e7;strokeColor=#9673a6;rounded=1;glass=0;strokeWidth=1;shadow=0;fontStyle=1;" parent="3B7eSZ0378xvD8d0vk0m-64" vertex="1">
          <mxGeometry x="-50" y="247.84" width="250" height="92.16" as="geometry" />
        </mxCell>
        <mxCell id="3B7eSZ0378xvD8d0vk0m-72" value="" style="edgeStyle=orthogonalEdgeStyle;rounded=0;orthogonalLoop=1;jettySize=auto;html=1;" parent="3B7eSZ0378xvD8d0vk0m-64" source="3B7eSZ0378xvD8d0vk0m-67" target="3B7eSZ0378xvD8d0vk0m-71" edge="1">
          <mxGeometry relative="1" as="geometry" />
        </mxCell>
        <mxCell id="3B7eSZ0378xvD8d0vk0m-117" value="结构A：" style="text;strokeColor=none;fillColor=none;html=1;fontSize=24;fontStyle=1;verticalAlign=middle;align=center;labelBackgroundColor=none;opacity=50;" parent="WIyWlLk6GJQsqaUBKTNV-1" vertex="1">
          <mxGeometry x="-710" y="-3290" width="100" height="40" as="geometry" />
        </mxCell>
        <mxCell id="3B7eSZ0378xvD8d0vk0m-118" value="结构B：" style="text;strokeColor=none;fillColor=none;html=1;fontSize=24;fontStyle=1;verticalAlign=middle;align=center;labelBackgroundColor=none;opacity=50;" parent="WIyWlLk6GJQsqaUBKTNV-1" vertex="1">
          <mxGeometry x="-710" y="-2942" width="100" height="40" as="geometry" />
        </mxCell>
        <mxCell id="3B7eSZ0378xvD8d0vk0m-119" value="" style="group" parent="WIyWlLk6GJQsqaUBKTNV-1" vertex="1" connectable="0">
          <mxGeometry x="-580" y="-2890" width="352" height="315.5" as="geometry" />
        </mxCell>
        <mxCell id="3B7eSZ0378xvD8d0vk0m-57" value="机构（总）" style="ellipse;whiteSpace=wrap;html=1;aspect=fixed;fontSize=24;opacity=50;" parent="3B7eSZ0378xvD8d0vk0m-119" vertex="1">
          <mxGeometry width="202" height="202" as="geometry" />
        </mxCell>
        <mxCell id="3B7eSZ0378xvD8d0vk0m-58" value="机构" style="ellipse;whiteSpace=wrap;html=1;aspect=fixed;fontSize=24;opacity=50;" parent="3B7eSZ0378xvD8d0vk0m-119" vertex="1">
          <mxGeometry x="70" y="120.5" width="195" height="195" as="geometry" />
        </mxCell>
        <mxCell id="3B7eSZ0378xvD8d0vk0m-59" value="机构" style="ellipse;whiteSpace=wrap;html=1;aspect=fixed;fontSize=24;opacity=50;" parent="3B7eSZ0378xvD8d0vk0m-119" vertex="1">
          <mxGeometry x="157" y="2.5" width="195" height="195" as="geometry" />
        </mxCell>
        <mxCell id="3B7eSZ0378xvD8d0vk0m-120" value="&lt;h1&gt;结构A&lt;/h1&gt;&lt;p&gt;&lt;font size=&quot;5&quot;&gt;结构A下的总属会结构关系是，总会不会有单独的会员。只要是总会的会员，一定是总会下某个分会的会员；只要是某个分会的会员，就一定属于该总会的会员。这样的结构更加类似于“社团”的概念。&lt;/font&gt;&lt;/p&gt;" style="text;html=1;strokeColor=none;fillColor=none;spacing=5;spacingTop=-20;whiteSpace=wrap;overflow=hidden;rounded=0;labelBackgroundColor=none;fontSize=15;opacity=50;" parent="WIyWlLk6GJQsqaUBKTNV-1" vertex="1">
          <mxGeometry x="5" y="-3265" width="405" height="265" as="geometry" />
        </mxCell>
        <mxCell id="3B7eSZ0378xvD8d0vk0m-121" value="&lt;h1&gt;结构B&lt;/h1&gt;&lt;p&gt;&lt;font size=&quot;5&quot;&gt;结构B的总属会结构关系，每一个团体（entity/实体）更加类似于“机构”的概念，“总属”关系更加偏向名义上的关系，实际上每个机构都是平等的，相互关联性和权限控制方面较结构A更弱。&lt;/font&gt;&lt;/p&gt;" style="text;html=1;strokeColor=none;fillColor=none;spacing=5;spacingTop=-20;whiteSpace=wrap;overflow=hidden;rounded=0;labelBackgroundColor=none;fontSize=15;opacity=50;" parent="WIyWlLk6GJQsqaUBKTNV-1" vertex="1">
          <mxGeometry y="-2902" width="405" height="265" as="geometry" />
        </mxCell>
        <mxCell id="3B7eSZ0378xvD8d0vk0m-122" value="需求" style="swimlane;fontSize=15;fillColor=none;opacity=50;labelBackgroundColor=#FF8000;strokeColor=none;" parent="WIyWlLk6GJQsqaUBKTNV-1" vertex="1" collapsed="1">
          <mxGeometry x="380" y="-2030" width="60" height="23" as="geometry">
            <mxRectangle x="380" y="-2030" width="255" height="197" as="alternateBounds" />
          </mxGeometry>
        </mxCell>
        <mxCell id="3B7eSZ0378xvD8d0vk0m-123" value="&lt;ol&gt;&lt;li&gt;在登录进连心平台，会有填写个人信息的引导，该个人信息储存在平台的用户信息表，不属于任何社团&lt;/li&gt;&lt;li&gt;用户在申请注册某一社团，如果连心注册项和社团注册项有重合，自动填入&lt;/li&gt;&lt;/ol&gt;" style="text;strokeColor=none;fillColor=none;html=1;whiteSpace=wrap;verticalAlign=top;overflow=hidden;labelBackgroundColor=none;fontSize=15;opacity=50;horizontal=1;" parent="3B7eSZ0378xvD8d0vk0m-122" vertex="1">
          <mxGeometry x="-2" y="30" width="262" height="130" as="geometry" />
        </mxCell>
        <mxCell id="3B7eSZ0378xvD8d0vk0m-175" value="" style="edgeStyle=orthogonalEdgeStyle;rounded=0;orthogonalLoop=1;jettySize=auto;html=1;fontSize=24;" parent="WIyWlLk6GJQsqaUBKTNV-1" source="3B7eSZ0378xvD8d0vk0m-172" target="3B7eSZ0378xvD8d0vk0m-174" edge="1">
          <mxGeometry relative="1" as="geometry" />
        </mxCell>
        <mxCell id="3B7eSZ0378xvD8d0vk0m-177" value="" style="edgeStyle=orthogonalEdgeStyle;rounded=0;orthogonalLoop=1;jettySize=auto;html=1;fontSize=24;entryX=0.5;entryY=0;entryDx=0;entryDy=0;" parent="WIyWlLk6GJQsqaUBKTNV-1" source="3B7eSZ0378xvD8d0vk0m-172" target="Q8CTjy8gL7TWKLckY6P0-11" edge="1">
          <mxGeometry relative="1" as="geometry">
            <mxPoint x="-535" y="-1930" as="targetPoint" />
          </mxGeometry>
        </mxCell>
        <mxCell id="3B7eSZ0378xvD8d0vk0m-172" value="登录账号" style="rounded=1;whiteSpace=wrap;html=1;fontSize=15;glass=0;strokeWidth=1;shadow=0;fontStyle=1;fillColor=#fff2cc;strokeColor=#d6b656;fontColor=#000000;" parent="WIyWlLk6GJQsqaUBKTNV-1" vertex="1">
          <mxGeometry x="-615" y="-2060" width="150" height="40" as="geometry" />
        </mxCell>
        <mxCell id="3B7eSZ0378xvD8d0vk0m-174" value="社团管理" style="rounded=1;whiteSpace=wrap;html=1;fontSize=15;glass=0;strokeWidth=1;shadow=0;fontStyle=1;fillColor=#fff2cc;strokeColor=#d6b656;fontColor=#000000;" parent="WIyWlLk6GJQsqaUBKTNV-1" vertex="1">
          <mxGeometry x="-378" y="-2060" width="150" height="40" as="geometry" />
        </mxCell>
        <mxCell id="CLERFuuJvT8i6gnzWTEx-2" value="APP/小程序报名" style="rounded=1;whiteSpace=wrap;html=1;fontSize=15;glass=0;strokeWidth=1;shadow=0;fontStyle=1;fillColor=#dae8fc;strokeColor=#6c8ebf;fontColor=#000000;" parent="WIyWlLk6GJQsqaUBKTNV-1" vertex="1">
          <mxGeometry x="670" y="50" width="120" height="40" as="geometry" />
        </mxCell>
        <mxCell id="CLERFuuJvT8i6gnzWTEx-7" value="为他人报名" style="rounded=1;whiteSpace=wrap;html=1;fontSize=15;glass=0;strokeWidth=1;shadow=0;fontStyle=1;fillColor=#dae8fc;strokeColor=#6c8ebf;fontColor=#000000;" parent="WIyWlLk6GJQsqaUBKTNV-1" vertex="1">
          <mxGeometry x="850" y="150" width="120" height="40" as="geometry" />
        </mxCell>
        <mxCell id="CLERFuuJvT8i6gnzWTEx-9" value="" style="endArrow=classic;html=1;rounded=0;fontSize=12;entryX=0.5;entryY=0;entryDx=0;entryDy=0;fillColor=#dae8fc;strokeColor=#6c8ebf;fontColor=#000000;exitX=1;exitY=0.5;exitDx=0;exitDy=0;" parent="WIyWlLk6GJQsqaUBKTNV-1" source="CLERFuuJvT8i6gnzWTEx-2" target="CLERFuuJvT8i6gnzWTEx-7" edge="1">
          <mxGeometry width="50" height="50" relative="1" as="geometry">
            <mxPoint x="740" y="100" as="sourcePoint" />
            <mxPoint x="740" y="160" as="targetPoint" />
            <Array as="points">
              <mxPoint x="910" y="70" />
            </Array>
          </mxGeometry>
        </mxCell>
        <mxCell id="CLERFuuJvT8i6gnzWTEx-10" value="是否为会员" style="rhombus;whiteSpace=wrap;html=1;fontSize=15;fillColor=#dae8fc;strokeColor=#6c8ebf;rounded=1;glass=0;strokeWidth=1;shadow=0;fontStyle=1;fontColor=#000000;" parent="WIyWlLk6GJQsqaUBKTNV-1" vertex="1">
          <mxGeometry x="860" y="240" width="100" height="80" as="geometry" />
        </mxCell>
        <mxCell id="CLERFuuJvT8i6gnzWTEx-13" value="" style="endArrow=classic;html=1;rounded=0;fontSize=12;fillColor=#dae8fc;strokeColor=#6c8ebf;fontColor=#000000;entryX=0.5;entryY=0;entryDx=0;entryDy=0;exitX=0.5;exitY=1;exitDx=0;exitDy=0;" parent="WIyWlLk6GJQsqaUBKTNV-1" source="CLERFuuJvT8i6gnzWTEx-7" target="CLERFuuJvT8i6gnzWTEx-10" edge="1">
          <mxGeometry width="50" height="50" relative="1" as="geometry">
            <mxPoint x="909" y="200" as="sourcePoint" />
            <mxPoint x="909" y="240" as="targetPoint" />
          </mxGeometry>
        </mxCell>
        <mxCell id="CLERFuuJvT8i6gnzWTEx-14" value="" style="endArrow=classic;html=1;rounded=0;fontSize=12;fillColor=#dae8fc;strokeColor=#6c8ebf;fontColor=#000000;exitX=1;exitY=0.5;exitDx=0;exitDy=0;" parent="WIyWlLk6GJQsqaUBKTNV-1" source="CLERFuuJvT8i6gnzWTEx-10" edge="1">
          <mxGeometry width="50" height="50" relative="1" as="geometry">
            <mxPoint x="970" y="200" as="sourcePoint" />
            <mxPoint x="1030" y="280" as="targetPoint" />
          </mxGeometry>
        </mxCell>
        <mxCell id="CLERFuuJvT8i6gnzWTEx-15" value="否" style="text;html=1;align=center;verticalAlign=middle;whiteSpace=wrap;rounded=0;labelBackgroundColor=#FFFFFF;labelBorderColor=none;fontSize=15;opacity=0;fontStyle=1;fontColor=#000000;" parent="WIyWlLk6GJQsqaUBKTNV-1" vertex="1">
          <mxGeometry x="960" y="250" width="60" height="30" as="geometry" />
        </mxCell>
        <mxCell id="CLERFuuJvT8i6gnzWTEx-16" value="注册会员" style="rounded=0;whiteSpace=wrap;html=1;strokeWidth=5;fontSize=17;fontStyle=1" parent="WIyWlLk6GJQsqaUBKTNV-1" vertex="1">
          <mxGeometry x="1030" y="255" width="100" height="50" as="geometry" />
        </mxCell>
        <mxCell id="CLERFuuJvT8i6gnzWTEx-17" value="" style="endArrow=classic;html=1;rounded=0;fontSize=12;fillColor=#dae8fc;strokeColor=#6c8ebf;fontColor=#000000;" parent="WIyWlLk6GJQsqaUBKTNV-1" edge="1">
          <mxGeometry width="50" height="50" relative="1" as="geometry">
            <mxPoint x="909" y="320" as="sourcePoint" />
            <mxPoint x="908" y="370" as="targetPoint" />
          </mxGeometry>
        </mxCell>
        <mxCell id="CLERFuuJvT8i6gnzWTEx-18" value="是" style="text;html=1;align=center;verticalAlign=middle;whiteSpace=wrap;rounded=0;labelBackgroundColor=#FFFFFF;labelBorderColor=none;fontSize=15;opacity=0;fontStyle=1;fontColor=#000000;" parent="WIyWlLk6GJQsqaUBKTNV-1" vertex="1">
          <mxGeometry x="890" y="320" width="60" height="30" as="geometry" />
        </mxCell>
        <mxCell id="CLERFuuJvT8i6gnzWTEx-24" value="" style="endArrow=classic;html=1;rounded=0;fontSize=12;fillColor=#fff2cc;strokeColor=#d6b656;entryX=0.5;entryY=0;entryDx=0;entryDy=0;fontColor=#000000;exitX=0.5;exitY=1;exitDx=0;exitDy=0;" parent="WIyWlLk6GJQsqaUBKTNV-1" target="WX159TqEyCOsGKeHhvjS-28" edge="1">
          <mxGeometry width="50" height="50" relative="1" as="geometry">
            <mxPoint x="379.23" y="-50" as="sourcePoint" />
            <mxPoint x="379.23" y="10" as="targetPoint" />
          </mxGeometry>
        </mxCell>
        <mxCell id="CLERFuuJvT8i6gnzWTEx-27" value="" style="endArrow=classic;html=1;rounded=0;fontSize=12;fillColor=#fff2cc;strokeColor=#d6b656;fontColor=#000000;exitX=0.5;exitY=1;exitDx=0;exitDy=0;entryX=0.5;entryY=0;entryDx=0;entryDy=0;" parent="WIyWlLk6GJQsqaUBKTNV-1" source="WX159TqEyCOsGKeHhvjS-28" target="CLERFuuJvT8i6gnzWTEx-31" edge="1">
          <mxGeometry width="50" height="50" relative="1" as="geometry">
            <mxPoint x="379.33000000000004" y="101.5" as="sourcePoint" />
            <mxPoint x="380.96000000000004" y="390.2399999999998" as="targetPoint" />
          </mxGeometry>
        </mxCell>
        <mxCell id="CLERFuuJvT8i6gnzWTEx-29" value="扫码报名" style="rounded=1;whiteSpace=wrap;html=1;fontSize=15;glass=0;strokeWidth=1;shadow=0;fillColor=#fff2cc;strokeColor=#d6b656;fontStyle=1;" parent="WIyWlLk6GJQsqaUBKTNV-1" vertex="1">
          <mxGeometry x="5" y="50" width="120" height="40" as="geometry" />
        </mxCell>
        <mxCell id="CLERFuuJvT8i6gnzWTEx-30" value="" style="endArrow=classic;html=1;rounded=0;fontSize=12;fillColor=#fff2cc;strokeColor=#d6b656;entryX=0.5;entryY=0;entryDx=0;entryDy=0;fontColor=#000000;exitX=0;exitY=0.5;exitDx=0;exitDy=0;" parent="WIyWlLk6GJQsqaUBKTNV-1" source="WIyWlLk6GJQsqaUBKTNV-7" edge="1">
          <mxGeometry width="50" height="50" relative="1" as="geometry">
            <mxPoint x="64.33000000000004" y="-50" as="sourcePoint" />
            <mxPoint x="65.10000000000002" y="50" as="targetPoint" />
            <Array as="points">
              <mxPoint x="65" y="-70" />
            </Array>
          </mxGeometry>
        </mxCell>
        <mxCell id="CLERFuuJvT8i6gnzWTEx-31" value="报名人员列表" style="whiteSpace=wrap;html=1;fontSize=15;fillColor=#fff2cc;strokeColor=#d6b656;rounded=1;glass=0;strokeWidth=1;shadow=0;fontStyle=1;fontColor=#000000;" parent="WIyWlLk6GJQsqaUBKTNV-1" vertex="1">
          <mxGeometry x="320" y="369.82" width="120" height="40" as="geometry" />
        </mxCell>
        <mxCell id="CLERFuuJvT8i6gnzWTEx-33" value="" style="endArrow=classic;html=1;rounded=0;fontSize=12;fillColor=#fff2cc;strokeColor=#d6b656;fontColor=#000000;entryX=0.5;entryY=0;entryDx=0;entryDy=0;exitX=0.5;exitY=1;exitDx=0;exitDy=0;" parent="WIyWlLk6GJQsqaUBKTNV-1" source="CLERFuuJvT8i6gnzWTEx-31" target="CLERFuuJvT8i6gnzWTEx-48" edge="1">
          <mxGeometry width="50" height="50" relative="1" as="geometry">
            <mxPoint x="380" y="410" as="sourcePoint" />
            <mxPoint x="380" y="510" as="targetPoint" />
          </mxGeometry>
        </mxCell>
        <mxCell id="So1NN85ygT-J7soTUWMl-0" value="" style="rounded=0;whiteSpace=wrap;html=1;labelBackgroundColor=#FFFF00;strokeWidth=10;shadow=1;perimeterSpacing=10;opacity=50;fillColor=#d5e8d4;strokeColor=#82b366;" parent="WIyWlLk6GJQsqaUBKTNV-1" vertex="1">
          <mxGeometry x="880" y="-2193" width="1500" height="870" as="geometry" />
        </mxCell>
        <mxCell id="CLERFuuJvT8i6gnzWTEx-41" value="" style="edgeStyle=orthogonalEdgeStyle;rounded=0;orthogonalLoop=1;jettySize=auto;html=1;fontSize=12;endArrow=classic;endFill=1;fillColor=#dae8fc;strokeColor=#6c8ebf;fontColor=#000000;entryX=1;entryY=0.5;entryDx=0;entryDy=0;exitX=0;exitY=0.5;exitDx=0;exitDy=0;" parent="WIyWlLk6GJQsqaUBKTNV-1" source="WX159TqEyCOsGKeHhvjS-92" target="CLERFuuJvT8i6gnzWTEx-31" edge="1">
          <mxGeometry relative="1" as="geometry">
            <mxPoint x="820" y="419.8199999999997" as="sourcePoint" />
            <mxPoint x="820" y="480" as="targetPoint" />
          </mxGeometry>
        </mxCell>
        <mxCell id="CLERFuuJvT8i6gnzWTEx-42" value="活动成员列表" style="whiteSpace=wrap;html=1;fontSize=15;fillColor=#fff2cc;strokeColor=#d6b656;rounded=1;glass=0;strokeWidth=1;shadow=0;fontStyle=1;fontColor=#000000;" parent="WIyWlLk6GJQsqaUBKTNV-1" vertex="1">
          <mxGeometry x="320" y="755" width="120" height="40" as="geometry" />
        </mxCell>
        <mxCell id="CLERFuuJvT8i6gnzWTEx-48" value="报名审核&lt;br&gt;通过/拒绝" style="rhombus;whiteSpace=wrap;html=1;fontSize=15;fillColor=#fff2cc;strokeColor=#d6b656;rounded=1;glass=0;strokeWidth=1;shadow=0;fontStyle=1;fontColor=#000000;" parent="WIyWlLk6GJQsqaUBKTNV-1" vertex="1">
          <mxGeometry x="300" y="572" width="160" height="80" as="geometry" />
        </mxCell>
        <mxCell id="CLERFuuJvT8i6gnzWTEx-50" value="通过" style="text;html=1;align=center;verticalAlign=middle;whiteSpace=wrap;rounded=0;labelBackgroundColor=#FFFFFF;labelBorderColor=none;fontSize=15;opacity=0;fontStyle=1;fontColor=#000000;" parent="WIyWlLk6GJQsqaUBKTNV-1" vertex="1">
          <mxGeometry x="370" y="682" width="60" height="30" as="geometry" />
        </mxCell>
        <mxCell id="CLERFuuJvT8i6gnzWTEx-51" value="" style="endArrow=classic;html=1;rounded=0;fontSize=12;fillColor=#fff2cc;strokeColor=#d6b656;fontColor=#000000;exitX=0;exitY=0.5;exitDx=0;exitDy=0;entryX=0;entryY=0.5;entryDx=0;entryDy=0;" parent="WIyWlLk6GJQsqaUBKTNV-1" source="CLERFuuJvT8i6gnzWTEx-48" target="CLERFuuJvT8i6gnzWTEx-31" edge="1">
          <mxGeometry width="50" height="50" relative="1" as="geometry">
            <mxPoint x="390" y="419.8199999999997" as="sourcePoint" />
            <mxPoint x="240" y="540" as="targetPoint" />
            <Array as="points">
              <mxPoint x="260" y="612" />
              <mxPoint x="260" y="390" />
            </Array>
          </mxGeometry>
        </mxCell>
        <mxCell id="CLERFuuJvT8i6gnzWTEx-52" value="拒绝" style="text;html=1;align=center;verticalAlign=middle;whiteSpace=wrap;rounded=0;labelBackgroundColor=#FFFFFF;labelBorderColor=none;fontSize=15;opacity=0;fontStyle=1;fontColor=#000000;" parent="WIyWlLk6GJQsqaUBKTNV-1" vertex="1">
          <mxGeometry x="255" y="483" width="60" height="30" as="geometry" />
        </mxCell>
        <mxCell id="CLERFuuJvT8i6gnzWTEx-53" value="" style="endArrow=classic;html=1;rounded=0;fontSize=12;fillColor=#fff2cc;strokeColor=#d6b656;fontColor=#000000;exitX=0.5;exitY=1;exitDx=0;exitDy=0;entryX=0;entryY=0.5;entryDx=0;entryDy=0;" parent="WIyWlLk6GJQsqaUBKTNV-1" target="CLERFuuJvT8i6gnzWTEx-42" edge="1">
          <mxGeometry width="50" height="50" relative="1" as="geometry">
            <mxPoint x="219.33" y="90" as="sourcePoint" />
            <mxPoint x="219.33" y="369.8199999999997" as="targetPoint" />
            <Array as="points">
              <mxPoint x="219" y="775" />
            </Array>
          </mxGeometry>
        </mxCell>
        <mxCell id="CLERFuuJvT8i6gnzWTEx-54" value="" style="endArrow=classic;html=1;rounded=0;fontSize=12;fillColor=#fff2cc;strokeColor=#d6b656;fontColor=#000000;exitX=0.5;exitY=1;exitDx=0;exitDy=0;entryX=0;entryY=0.5;entryDx=0;entryDy=0;" parent="WIyWlLk6GJQsqaUBKTNV-1" source="CLERFuuJvT8i6gnzWTEx-29" target="CLERFuuJvT8i6gnzWTEx-42" edge="1">
          <mxGeometry width="50" height="50" relative="1" as="geometry">
            <mxPoint x="60.32999999999993" y="90" as="sourcePoint" />
            <mxPoint x="161" y="710" as="targetPoint" />
            <Array as="points">
              <mxPoint x="65" y="775" />
            </Array>
          </mxGeometry>
        </mxCell>
        <mxCell id="CLERFuuJvT8i6gnzWTEx-58" value="" style="endArrow=classic;html=1;rounded=0;fontSize=12;fillColor=#dae8fc;strokeColor=#6c8ebf;fontColor=#000000;entryX=0.5;entryY=0;entryDx=0;entryDy=0;" parent="WIyWlLk6GJQsqaUBKTNV-1" target="WX159TqEyCOsGKeHhvjS-101" edge="1">
          <mxGeometry width="50" height="50" relative="1" as="geometry">
            <mxPoint x="809" y="410" as="sourcePoint" />
            <mxPoint x="809" y="480" as="targetPoint" />
          </mxGeometry>
        </mxCell>
        <mxCell id="CLERFuuJvT8i6gnzWTEx-61" value="" style="endArrow=classic;html=1;rounded=0;fontSize=12;fillColor=#dae8fc;strokeColor=#6c8ebf;fontColor=#000000;entryX=1;entryY=0.5;entryDx=0;entryDy=0;exitX=1;exitY=0.5;exitDx=0;exitDy=0;" parent="WIyWlLk6GJQsqaUBKTNV-1" source="WX159TqEyCOsGKeHhvjS-101" target="WX159TqEyCOsGKeHhvjS-92" edge="1">
          <mxGeometry width="50" height="50" relative="1" as="geometry">
            <mxPoint x="920" y="200" as="sourcePoint" />
            <mxPoint x="920" y="250" as="targetPoint" />
            <Array as="points">
              <mxPoint x="1000" y="500" />
              <mxPoint x="1000" y="390" />
            </Array>
          </mxGeometry>
        </mxCell>
        <mxCell id="CLERFuuJvT8i6gnzWTEx-63" value="提示联系活动举办方" style="rounded=1;whiteSpace=wrap;html=1;fontSize=15;fillColor=#dae8fc;strokeColor=#6c8ebf;glass=0;strokeWidth=1;shadow=0;fontStyle=1;fontColor=#000000;" parent="WIyWlLk6GJQsqaUBKTNV-1" vertex="1">
          <mxGeometry x="1020" y="720" width="100" height="40" as="geometry" />
        </mxCell>
        <mxCell id="CLERFuuJvT8i6gnzWTEx-64" value="" style="endArrow=classic;html=1;rounded=0;fontSize=12;exitX=1;exitY=0.5;exitDx=0;exitDy=0;entryX=0;entryY=0.5;entryDx=0;entryDy=0;fillColor=#dae8fc;strokeColor=#6c8ebf;fontColor=#000000;" parent="WIyWlLk6GJQsqaUBKTNV-1" source="WX159TqEyCOsGKeHhvjS-84" target="CLERFuuJvT8i6gnzWTEx-63" edge="1">
          <mxGeometry width="50" height="50" relative="1" as="geometry">
            <mxPoint x="860" y="739.33" as="sourcePoint" />
            <mxPoint x="1010" y="739.33" as="targetPoint" />
          </mxGeometry>
        </mxCell>
        <mxCell id="CLERFuuJvT8i6gnzWTEx-65" value="" style="endArrow=classic;html=1;rounded=0;fontSize=12;fillColor=#fff2cc;strokeColor=#d6b656;fontColor=#000000;entryX=0;entryY=0.5;entryDx=0;entryDy=0;exitX=1;exitY=0.5;exitDx=0;exitDy=0;" parent="WIyWlLk6GJQsqaUBKTNV-1" source="CLERFuuJvT8i6gnzWTEx-48" target="WX159TqEyCOsGKeHhvjS-33" edge="1">
          <mxGeometry width="50" height="50" relative="1" as="geometry">
            <mxPoint x="550" y="650" as="sourcePoint" />
            <mxPoint x="390" y="379.8199999999997" as="targetPoint" />
          </mxGeometry>
        </mxCell>
        <mxCell id="CLERFuuJvT8i6gnzWTEx-68" value="" style="endArrow=classic;html=1;rounded=0;fontSize=12;fillColor=#fff2cc;strokeColor=#d6b656;fontColor=#000000;entryX=0.5;entryY=0;entryDx=0;entryDy=0;startArrow=none;" parent="WIyWlLk6GJQsqaUBKTNV-1" target="WX159TqEyCOsGKeHhvjS-67" edge="1">
          <mxGeometry width="50" height="50" relative="1" as="geometry">
            <mxPoint x="379" y="800" as="sourcePoint" />
            <mxPoint x="379.33" y="900" as="targetPoint" />
          </mxGeometry>
        </mxCell>
        <mxCell id="So1NN85ygT-J7soTUWMl-2" value="问题" style="swimlane;fontSize=15;fillColor=none;opacity=50;labelBackgroundColor=#CC0000;strokeColor=none;" parent="WIyWlLk6GJQsqaUBKTNV-1" collapsed="1" vertex="1">
          <mxGeometry x="980" y="-2130" width="60" height="23" as="geometry">
            <mxRectangle x="1110" y="-2020" width="260" height="200" as="alternateBounds" />
          </mxGeometry>
        </mxCell>
        <mxCell id="So1NN85ygT-J7soTUWMl-3" value="&lt;ol&gt;&lt;li&gt;“领取机构数量”，是指最多派发数量，但是后台是以”按钮“形式展示，容易让人忽略&lt;/li&gt;&lt;/ol&gt;" style="text;strokeColor=none;fillColor=none;html=1;whiteSpace=wrap;verticalAlign=top;overflow=hidden;labelBackgroundColor=none;fontSize=15;opacity=50;" parent="So1NN85ygT-J7soTUWMl-2" vertex="1">
          <mxGeometry x="-2" y="30" width="262" height="130" as="geometry" />
        </mxCell>
        <mxCell id="So1NN85ygT-J7soTUWMl-10" value="" style="edgeStyle=orthogonalEdgeStyle;rounded=0;orthogonalLoop=1;jettySize=auto;html=1;" parent="WIyWlLk6GJQsqaUBKTNV-1" source="So1NN85ygT-J7soTUWMl-8" target="So1NN85ygT-J7soTUWMl-9" edge="1">
          <mxGeometry relative="1" as="geometry" />
        </mxCell>
        <mxCell id="So1NN85ygT-J7soTUWMl-8" value="福利商城&lt;span style=&quot;white-space: pre&quot;&gt; &lt;/span&gt;" style="rounded=0;whiteSpace=wrap;html=1;" parent="WIyWlLk6GJQsqaUBKTNV-1" vertex="1">
          <mxGeometry x="980" y="-2040" width="120" height="60" as="geometry" />
        </mxCell>
        <mxCell id="So1NN85ygT-J7soTUWMl-12" value="" style="edgeStyle=orthogonalEdgeStyle;rounded=0;orthogonalLoop=1;jettySize=auto;html=1;" parent="WIyWlLk6GJQsqaUBKTNV-1" source="So1NN85ygT-J7soTUWMl-9" target="So1NN85ygT-J7soTUWMl-11" edge="1">
          <mxGeometry relative="1" as="geometry" />
        </mxCell>
        <mxCell id="So1NN85ygT-J7soTUWMl-9" value="选择商品类型" style="rhombus;whiteSpace=wrap;html=1;rounded=0;" parent="WIyWlLk6GJQsqaUBKTNV-1" vertex="1">
          <mxGeometry x="1200" y="-2050" width="110" height="80" as="geometry" />
        </mxCell>
        <mxCell id="So1NN85ygT-J7soTUWMl-11" value="" style="whiteSpace=wrap;html=1;rounded=0;" parent="WIyWlLk6GJQsqaUBKTNV-1" vertex="1">
          <mxGeometry x="1385" y="-2040" width="120" height="60" as="geometry" />
        </mxCell>
        <mxCell id="So1NN85ygT-J7soTUWMl-13" value="领用券" style="text;html=1;strokeColor=none;fillColor=none;align=center;verticalAlign=middle;whiteSpace=wrap;rounded=0;" parent="WIyWlLk6GJQsqaUBKTNV-1" vertex="1">
          <mxGeometry x="1310" y="-2040" width="60" height="30" as="geometry" />
        </mxCell>
        <mxCell id="So1NN85ygT-J7soTUWMl-15" value="领用券" style="swimlane;fontStyle=0;childLayout=stackLayout;horizontal=1;startSize=26;fillColor=none;horizontalStack=0;resizeParent=1;resizeParentMax=0;resizeLast=0;collapsible=1;marginBottom=0;" parent="WIyWlLk6GJQsqaUBKTNV-1" collapsed="1" vertex="1">
          <mxGeometry x="1280" y="-1950" width="50" height="26" as="geometry">
            <mxRectangle x="1280" y="-1950" width="140" height="620" as="alternateBounds" />
          </mxGeometry>
        </mxCell>
        <mxCell id="So1NN85ygT-J7soTUWMl-16" value="*派发方式&#xa;" style="text;strokeColor=none;fillColor=none;align=left;verticalAlign=top;spacingLeft=4;spacingRight=4;overflow=hidden;rotatable=0;points=[[0,0.5],[1,0.5]];portConstraint=eastwest;" parent="So1NN85ygT-J7soTUWMl-15" vertex="1">
          <mxGeometry y="26" width="50" height="26" as="geometry" />
        </mxCell>
        <mxCell id="So1NN85ygT-J7soTUWMl-17" value="*商品分类" style="text;strokeColor=none;fillColor=none;align=left;verticalAlign=top;spacingLeft=4;spacingRight=4;overflow=hidden;rotatable=0;points=[[0,0.5],[1,0.5]];portConstraint=eastwest;" parent="So1NN85ygT-J7soTUWMl-15" vertex="1">
          <mxGeometry y="52" width="50" height="28" as="geometry" />
        </mxCell>
        <mxCell id="So1NN85ygT-J7soTUWMl-18" value="*商品名称" style="text;strokeColor=none;fillColor=none;align=left;verticalAlign=top;spacingLeft=4;spacingRight=4;overflow=hidden;rotatable=0;points=[[0,0.5],[1,0.5]];portConstraint=eastwest;" parent="So1NN85ygT-J7soTUWMl-15" vertex="1">
          <mxGeometry y="80" width="50" height="26" as="geometry" />
        </mxCell>
        <mxCell id="So1NN85ygT-J7soTUWMl-19" value="*副标题" style="text;strokeColor=none;fillColor=none;align=left;verticalAlign=top;spacingLeft=4;spacingRight=4;overflow=hidden;rotatable=0;points=[[0,0.5],[1,0.5]];portConstraint=eastwest;" parent="So1NN85ygT-J7soTUWMl-15" vertex="1">
          <mxGeometry y="106" width="50" height="26" as="geometry" />
        </mxCell>
        <mxCell id="So1NN85ygT-J7soTUWMl-20" value="商品品牌" style="text;strokeColor=none;fillColor=none;align=left;verticalAlign=top;spacingLeft=4;spacingRight=4;overflow=hidden;rotatable=0;points=[[0,0.5],[1,0.5]];portConstraint=eastwest;" parent="So1NN85ygT-J7soTUWMl-15" vertex="1">
          <mxGeometry y="132" width="50" height="26" as="geometry" />
        </mxCell>
        <mxCell id="So1NN85ygT-J7soTUWMl-21" value="商品优惠码" style="text;strokeColor=none;fillColor=none;align=left;verticalAlign=top;spacingLeft=4;spacingRight=4;overflow=hidden;rotatable=0;points=[[0,0.5],[1,0.5]];portConstraint=eastwest;" parent="So1NN85ygT-J7soTUWMl-15" vertex="1">
          <mxGeometry y="158" width="50" height="22" as="geometry" />
        </mxCell>
        <mxCell id="So1NN85ygT-J7soTUWMl-22" value="商品库存" style="text;strokeColor=none;fillColor=none;align=left;verticalAlign=top;spacingLeft=4;spacingRight=4;overflow=hidden;rotatable=0;points=[[0,0.5],[1,0.5]];portConstraint=eastwest;" parent="So1NN85ygT-J7soTUWMl-15" vertex="1">
          <mxGeometry y="180" width="50" height="22" as="geometry" />
        </mxCell>
        <mxCell id="So1NN85ygT-J7soTUWMl-23" value="*领取机构" style="text;strokeColor=none;fillColor=none;align=left;verticalAlign=top;spacingLeft=4;spacingRight=4;overflow=hidden;rotatable=0;points=[[0,0.5],[1,0.5]];portConstraint=eastwest;fontColor=#CC0000;" parent="So1NN85ygT-J7soTUWMl-15" vertex="1">
          <mxGeometry y="202" width="50" height="28" as="geometry" />
        </mxCell>
        <mxCell id="So1NN85ygT-J7soTUWMl-25" value="每人限领数量" style="text;strokeColor=none;fillColor=none;align=left;verticalAlign=top;spacingLeft=4;spacingRight=4;overflow=hidden;rotatable=0;points=[[0,0.5],[1,0.5]];portConstraint=eastwest;fontColor=#000000;" parent="So1NN85ygT-J7soTUWMl-15" vertex="1">
          <mxGeometry y="230" width="50" height="28" as="geometry" />
        </mxCell>
        <mxCell id="So1NN85ygT-J7soTUWMl-26" value="领取机构数量" style="text;strokeColor=none;fillColor=none;align=left;verticalAlign=top;spacingLeft=4;spacingRight=4;overflow=hidden;rotatable=0;points=[[0,0.5],[1,0.5]];portConstraint=eastwest;fontColor=#000000;" parent="So1NN85ygT-J7soTUWMl-15" vertex="1">
          <mxGeometry y="258" width="50" height="28" as="geometry" />
        </mxCell>
        <mxCell id="So1NN85ygT-J7soTUWMl-27" value="*机构每小时接待人数" style="text;strokeColor=none;fillColor=none;align=left;verticalAlign=top;spacingLeft=4;spacingRight=4;overflow=hidden;rotatable=0;points=[[0,0.5],[1,0.5]];portConstraint=eastwest;fontColor=#000000;" parent="So1NN85ygT-J7soTUWMl-15" vertex="1">
          <mxGeometry y="286" width="50" height="28" as="geometry" />
        </mxCell>
        <mxCell id="So1NN85ygT-J7soTUWMl-28" value="*领取密码" style="text;strokeColor=none;fillColor=none;align=left;verticalAlign=top;spacingLeft=4;spacingRight=4;overflow=hidden;rotatable=0;points=[[0,0.5],[1,0.5]];portConstraint=eastwest;fontColor=#000000;" parent="So1NN85ygT-J7soTUWMl-15" vertex="1">
          <mxGeometry y="314" width="50" height="28" as="geometry" />
        </mxCell>
        <mxCell id="So1NN85ygT-J7soTUWMl-29" value="*线下领用日期" style="text;strokeColor=none;fillColor=none;align=left;verticalAlign=top;spacingLeft=4;spacingRight=4;overflow=hidden;rotatable=0;points=[[0,0.5],[1,0.5]];portConstraint=eastwest;fontColor=#000000;" parent="So1NN85ygT-J7soTUWMl-15" vertex="1">
          <mxGeometry y="342" width="50" height="28" as="geometry" />
        </mxCell>
        <mxCell id="So1NN85ygT-J7soTUWMl-30" value="*线下领用时间" style="text;strokeColor=none;fillColor=none;align=left;verticalAlign=top;spacingLeft=4;spacingRight=4;overflow=hidden;rotatable=0;points=[[0,0.5],[1,0.5]];portConstraint=eastwest;fontColor=#000000;" parent="So1NN85ygT-J7soTUWMl-15" vertex="1">
          <mxGeometry y="370" width="50" height="28" as="geometry" />
        </mxCell>
        <mxCell id="So1NN85ygT-J7soTUWMl-31" value="*线上开始时间" style="text;strokeColor=none;fillColor=none;align=left;verticalAlign=top;spacingLeft=4;spacingRight=4;overflow=hidden;rotatable=0;points=[[0,0.5],[1,0.5]];portConstraint=eastwest;fontColor=#000000;" parent="So1NN85ygT-J7soTUWMl-15" vertex="1">
          <mxGeometry y="398" width="50" height="28" as="geometry" />
        </mxCell>
        <mxCell id="So1NN85ygT-J7soTUWMl-32" value="*线上结束日期" style="text;strokeColor=none;fillColor=none;align=left;verticalAlign=top;spacingLeft=4;spacingRight=4;overflow=hidden;rotatable=0;points=[[0,0.5],[1,0.5]];portConstraint=eastwest;fontColor=#000000;" parent="So1NN85ygT-J7soTUWMl-15" vertex="1">
          <mxGeometry y="426" width="50" height="28" as="geometry" />
        </mxCell>
        <mxCell id="So1NN85ygT-J7soTUWMl-33" value="商品货号" style="text;strokeColor=none;fillColor=none;align=left;verticalAlign=top;spacingLeft=4;spacingRight=4;overflow=hidden;rotatable=0;points=[[0,0.5],[1,0.5]];portConstraint=eastwest;fontColor=#000000;" parent="So1NN85ygT-J7soTUWMl-15" vertex="1">
          <mxGeometry y="454" width="50" height="28" as="geometry" />
        </mxCell>
        <mxCell id="So1NN85ygT-J7soTUWMl-34" value="商品售价" style="text;strokeColor=none;fillColor=none;align=left;verticalAlign=top;spacingLeft=4;spacingRight=4;overflow=hidden;rotatable=0;points=[[0,0.5],[1,0.5]];portConstraint=eastwest;fontColor=#000000;" parent="So1NN85ygT-J7soTUWMl-15" vertex="1">
          <mxGeometry y="482" width="50" height="28" as="geometry" />
        </mxCell>
        <mxCell id="So1NN85ygT-J7soTUWMl-35" value="市场价" style="text;strokeColor=none;fillColor=none;align=left;verticalAlign=top;spacingLeft=4;spacingRight=4;overflow=hidden;rotatable=0;points=[[0,0.5],[1,0.5]];portConstraint=eastwest;fontColor=#000000;" parent="So1NN85ygT-J7soTUWMl-15" vertex="1">
          <mxGeometry y="510" width="50" height="28" as="geometry" />
        </mxCell>
        <mxCell id="So1NN85ygT-J7soTUWMl-36" value="折扣" style="text;strokeColor=none;fillColor=none;align=left;verticalAlign=top;spacingLeft=4;spacingRight=4;overflow=hidden;rotatable=0;points=[[0,0.5],[1,0.5]];portConstraint=eastwest;fontColor=#000000;" parent="So1NN85ygT-J7soTUWMl-15" vertex="1">
          <mxGeometry y="538" width="50" height="28" as="geometry" />
        </mxCell>
        <mxCell id="So1NN85ygT-J7soTUWMl-37" value="计量单位" style="text;strokeColor=none;fillColor=none;align=left;verticalAlign=top;spacingLeft=4;spacingRight=4;overflow=hidden;rotatable=0;points=[[0,0.5],[1,0.5]];portConstraint=eastwest;fontColor=#000000;" parent="So1NN85ygT-J7soTUWMl-15" vertex="1">
          <mxGeometry y="566" width="50" height="28" as="geometry" />
        </mxCell>
        <mxCell id="So1NN85ygT-J7soTUWMl-38" value="商品重量" style="text;strokeColor=none;fillColor=none;align=left;verticalAlign=top;spacingLeft=4;spacingRight=4;overflow=hidden;rotatable=0;points=[[0,0.5],[1,0.5]];portConstraint=eastwest;fontColor=#000000;" parent="So1NN85ygT-J7soTUWMl-15" vertex="1">
          <mxGeometry y="594" width="50" height="26" as="geometry" />
        </mxCell>
        <mxCell id="So1NN85ygT-J7soTUWMl-1" value="&lt;font size=&quot;5&quot;&gt;&lt;b&gt;关于福利&lt;/b&gt;&lt;/font&gt;" style="text;html=1;strokeColor=none;fillColor=none;align=center;verticalAlign=middle;whiteSpace=wrap;rounded=0;" parent="WIyWlLk6GJQsqaUBKTNV-1" vertex="1">
          <mxGeometry x="880" y="-2300" width="300" height="50" as="geometry" />
        </mxCell>
        <mxCell id="CLERFuuJvT8i6gnzWTEx-157" value="关联活动&lt;br&gt;批量报名" style="whiteSpace=wrap;html=1;fontSize=15;fillColor=#fff2cc;strokeColor=#d6b656;rounded=1;glass=0;strokeWidth=1;shadow=0;fontStyle=1;fontColor=#000000;" parent="WIyWlLk6GJQsqaUBKTNV-1" vertex="1">
          <mxGeometry x="-150" y="50" width="120" height="40" as="geometry" />
        </mxCell>
        <mxCell id="BpH_Q4-gI4XQU3lh7Zpj-0" value="" style="endArrow=classic;html=1;rounded=0;fontSize=12;fillColor=#fff2cc;strokeColor=#d6b656;entryX=0.5;entryY=0;entryDx=0;entryDy=0;fontColor=#000000;exitX=0;exitY=0.5;exitDx=0;exitDy=0;" edge="1" parent="WIyWlLk6GJQsqaUBKTNV-1" source="WIyWlLk6GJQsqaUBKTNV-7" target="CLERFuuJvT8i6gnzWTEx-157">
          <mxGeometry width="50" height="50" relative="1" as="geometry">
            <mxPoint x="-90.52999999999997" y="-77" as="sourcePoint" />
            <mxPoint x="-89.75999999999999" y="23" as="targetPoint" />
            <Array as="points">
              <mxPoint x="-90" y="-70" />
            </Array>
          </mxGeometry>
        </mxCell>
        <mxCell id="BpH_Q4-gI4XQU3lh7Zpj-1" value="" style="endArrow=classic;html=1;rounded=0;fontSize=12;fillColor=#fff2cc;strokeColor=#d6b656;fontColor=#000000;entryX=0;entryY=0.5;entryDx=0;entryDy=0;startArrow=none;exitX=0.5;exitY=1;exitDx=0;exitDy=0;" edge="1" parent="WIyWlLk6GJQsqaUBKTNV-1" source="CLERFuuJvT8i6gnzWTEx-157" target="CLERFuuJvT8i6gnzWTEx-42">
          <mxGeometry width="50" height="50" relative="1" as="geometry">
            <mxPoint x="-30" y="647" as="sourcePoint" />
            <mxPoint x="-30" y="750" as="targetPoint" />
            <Array as="points">
              <mxPoint x="-90" y="775" />
            </Array>
          </mxGeometry>
        </mxCell>
      </root>
    </mxGraphModel>
  </diagram>
</mxfile>
